solid stl_item0
  facet normal 0 0 -1
    outer loop
      vertex -46.026 -36.518 0
      vertex -27.266 -36.518 0
      vertex -46.313 -39.855 0
    endloop
  endfacet
  facet normal 0 0 -1
    outer loop
      vertex -46.1 -40.274 0
      vertex -46.313 -39.855 0
      vertex -27.266 -36.518 0
    endloop
  endfacet
  facet normal 0 0 1
    outer loop
      vertex -21.636 -36.562 7.068
      vertex -27.266 -36.518 7.068
      vertex -27.498 -36.562 7.068
    endloop
  endfacet
  facet normal 0 0 1
    outer loop
      vertex -27.498 -36.518 7.068
      vertex -27.498 -36.562 7.068
      vertex -27.266 -36.518 7.068
    endloop
  endfacet
  facet normal 0 0 -1
    outer loop
      vertex -46.026 -36.518 0
      vertex -47.063 -39.309 0
      vertex -47.527 -39.236 0
    endloop
  endfacet
  facet normal 0 0 -1
    outer loop
      vertex -47.991 -39.309 0
      vertex -46.026 -36.518 0
      vertex -47.527 -39.236 0
    endloop
  endfacet
  facet normal 0 1 0
    outer loop
      vertex -80.963 -36.518 3.304
      vertex -78.615 -36.518 3.304
      vertex -80.963 -36.518 0
    endloop
  endfacet
  facet normal 0 1 0
    outer loop
      vertex -80.963 -36.518 0
      vertex -78.615 -36.518 3.304
      vertex -74.079 -36.518 3.304
    endloop
  endfacet
  facet normal 0 0 -1
    outer loop
      vertex -46.026 -40.738 0
      vertex -46.1 -40.274 0
      vertex -27.266 -36.518 0
    endloop
  endfacet
  facet normal 0 0 -1
    outer loop
      vertex -27.266 -36.518 0
      vertex -18 -45.018 0
      vertex -46.1 -41.202 0
    endloop
  endfacet
  facet normal 0 1 0
    outer loop
      vertex -18 15 0
      vertex -92 15 0
      vertex -18 15 3.304
    endloop
  endfacet
  facet normal 0 1 0
    outer loop
      vertex -92 15 3.304
      vertex -18 15 3.304
      vertex -92 15 0
    endloop
  endfacet
  facet normal 0 0 -1
    outer loop
      vertex -49.027 -45.018 0
      vertex -47.991 -42.167 0
      vertex -47.527 -42.24 0
    endloop
  endfacet
  facet normal 0 0 -1
    outer loop
      vertex -47.527 -42.24 0
      vertex -47.063 -42.167 0
      vertex -49.027 -45.018 0
    endloop
  endfacet
  facet normal 0 0 -1
    outer loop
      vertex -46.645 -41.954 0
      vertex -46.313 -41.621 0
      vertex -18 -45.018 0
    endloop
  endfacet
  facet normal -0.89143 0.45316 0
    outer loop
      vertex -46.1 -41.202 0
      vertex -46.313 -41.621 0
      vertex -46.313 -41.621 3.304
    endloop
  endfacet
  facet normal 0 0 1
    outer loop
      vertex -75.513 -38.006 7.097
      vertex -74.079 -36.518 7.097
      vertex -76.214 -37.818 7.097
    endloop
  endfacet
  facet normal 0 0 1
    outer loop
      vertex -76.916 -38.006 7.097
      vertex -76.214 -37.818 7.097
      vertex -78.615 -36.518 7.097
    endloop
  endfacet
  facet normal -0.70817 0.70604 0
    outer loop
      vertex -46.313 -41.621 3.304
      vertex -46.313 -41.621 0
      vertex -46.645 -41.954 0
    endloop
  endfacet
  facet normal 0 0 1
    outer loop
      vertex -75.513 -38.006 7.097
      vertex -75 -38.519 7.097
      vertex -74.079 -36.518 7.097
    endloop
  endfacet
  facet normal -1 0 0
    outer loop
      vertex -92 -45.018 0
      vertex -92 -45.018 3.304
      vertex -92 15 3.304
    endloop
  endfacet
  facet normal -1 0 0
    outer loop
      vertex -92 -45.018 0
      vertex -92 15 3.304
      vertex -92 15 0
    endloop
  endfacet
  facet normal 0 -1 0
    outer loop
      vertex -18 -45.018 0
      vertex -18 -45.018 3.304
      vertex -49.027 -45.018 3.304
    endloop
  endfacet
  facet normal 0 -1 0
    outer loop
      vertex -18 -45.018 0
      vertex -49.027 -45.018 3.304
      vertex -49.027 -45.018 0
    endloop
  endfacet
  facet normal 0 -1 0
    outer loop
      vertex -92 -45.018 3.304
      vertex -63.974 -45.018 0
      vertex -49.027 -45.018 3.304
    endloop
  endfacet
  facet normal 0 -1 0
    outer loop
      vertex -49.027 -45.018 0
      vertex -49.027 -45.018 3.304
      vertex -63.974 -45.018 0
    endloop
  endfacet
  facet normal 0.96591 0.25886 0
    outer loop
      vertex -25.791 -34.238 7.068
      vertex -25.59 -34.988 0
      vertex -25.791 -34.238 0
    endloop
  endfacet
  facet normal 0 -1 0
    outer loop
      vertex -63.974 -45.018 0
      vertex -92 -45.018 3.304
      vertex -92 -45.018 0
    endloop
  endfacet
  facet normal 0.96609 -0.25822 0
    outer loop
      vertex -25.791 -34.238 7.068
      vertex -25.791 -34.238 0
      vertex -25.59 -33.486 0
    endloop
  endfacet
  facet normal -1 0 0
    outer loop
      vertex -27.266 -36.518 0
      vertex -27.266 -36.518 7.068
      vertex -27.266 -32.768 0
    endloop
  endfacet
  facet normal 0 1 0
    outer loop
      vertex -27.266 -36.518 7.068
      vertex -27.266 -36.518 0
      vertex -27.498 -36.518 3.304
    endloop
  endfacet
  facet normal 0 1 0
    outer loop
      vertex -27.266 -36.518 7.068
      vertex -27.498 -36.518 3.304
      vertex -27.498 -36.518 7.068
    endloop
  endfacet
  facet normal -1 0 0
    outer loop
      vertex -27.498 -36.518 7.068
      vertex -27.498 -36.518 3.304
      vertex -27.498 -36.562 7.068
    endloop
  endfacet
  facet normal -1 0 0
    outer loop
      vertex -27.498 -36.562 3.304
      vertex -27.498 -36.562 7.068
      vertex -27.498 -36.518 3.304
    endloop
  endfacet
  facet normal 0 -1 0
    outer loop
      vertex -72.335 6.827 7.398
      vertex -75.18 6.827 7.398
      vertex -72.335 6.827 3.304
    endloop
  endfacet
  facet normal 0 0 -1
    outer loop
      vertex -27.266 6.827 0
      vertex -18 15 0
      vertex -24.315 -4.56 0
    endloop
  endfacet
  facet normal 0 0 -1
    outer loop
      vertex -63.974 -45.018 0
      vertex -75 -39.921 0
      vertex -63.687 -41.621 0
    endloop
  endfacet
  facet normal 0.70817 -0.70604 0
    outer loop
      vertex -48.409 -39.522 0
      vertex -48.409 -39.522 3.304
      vertex -48.741 -39.855 0
    endloop
  endfacet
  facet normal 0.45402 -0.89099 0
    outer loop
      vertex -47.991 -39.309 0
      vertex -48.409 -39.522 3.304
      vertex -48.409 -39.522 0
    endloop
  endfacet
  facet normal 1 0 0
    outer loop
      vertex -72.335 12.525 7.398
      vertex -72.335 6.827 7.398
      vertex -72.335 6.827 3.304
    endloop
  endfacet
  facet normal 1 0 0
    outer loop
      vertex -72.335 12.525 7.398
      vertex -72.335 6.827 3.304
      vertex -72.335 12.525 3.304
    endloop
  endfacet
  facet normal 0 1 0
    outer loop
      vertex -27.266 -36.518 0
      vertex -32.768 -36.518 3.304
      vertex -27.498 -36.518 3.304
    endloop
  endfacet
  facet normal 0 0 1
    outer loop
      vertex -18 15 3.304
      vertex -92 15 3.304
      vertex -72.335 12.525 3.304
    endloop
  endfacet
  facet normal 0 0 -1
    outer loop
      vertex -18 -16.384 0
      vertex -22.866 -6.009 0
      vertex -18 15 0
    endloop
  endfacet
  facet normal -0.15542 -0.98785 0
    outer loop
      vertex -47.063 -39.309 0
      vertex -47.063 -39.309 3.304
      vertex -47.527 -39.236 0
    endloop
  endfacet
  facet normal 0 0 -1
    outer loop
      vertex -23.06 -5.284 0
      vertex -18 15 0
      vertex -22.866 -6.009 0
    endloop
  endfacet
  facet normal 0 0 -1
    outer loop
      vertex -23.06 -5.284 0
      vertex -23.59 -4.754 0
      vertex -18 15 0
    endloop
  endfacet
  facet normal 0 0 -1
    outer loop
      vertex -23.59 -4.754 0
      vertex -24.315 -4.56 0
      vertex -18 15 0
    endloop
  endfacet
  facet normal -0.96578 0.25937 0
    outer loop
      vertex -73.762 8.21 7.398
      vertex -73.545 9.018 7.398
      vertex -73.545 9.018 0
    endloop
  endfacet
  facet normal 0 0 1
    outer loop
      vertex -72.335 12.525 7.398
      vertex -73.545 9.018 7.398
      vertex -72.335 6.827 7.398
    endloop
  endfacet
  facet normal 0 0 1
    outer loop
      vertex -73.545 9.018 7.398
      vertex -73.762 8.21 7.398
      vertex -72.335 6.827 7.398
    endloop
  endfacet
  facet normal 0 -1 0
    outer loop
      vertex -78.232 6.827 3.304
      vertex -80.963 6.827 0
      vertex -72.335 6.827 3.304
    endloop
  endfacet
  facet normal -0.45402 -0.89099 0
    outer loop
      vertex -47.063 -39.309 3.304
      vertex -47.063 -39.309 0
      vertex -46.645 -39.522 0
    endloop
  endfacet
  facet normal 0 0 -1
    outer loop
      vertex -23.06 -6.733 0
      vertex -22.866 -6.009 0
      vertex -18 -16.384 0
    endloop
  endfacet
  facet normal 0 0 1
    outer loop
      vertex -74.354 7.618 7.398
      vertex -72.335 6.827 7.398
      vertex -73.762 8.21 7.398
    endloop
  endfacet
  facet normal -0.70817 -0.70604 0
    outer loop
      vertex -46.645 -39.522 0
      vertex -46.313 -39.855 0
      vertex -46.313 -39.855 3.304
    endloop
  endfacet
  facet normal 0 0 -1
    outer loop
      vertex -23.59 -7.263 0
      vertex -18 -16.384 0
      vertex -24.315 -7.457 0
    endloop
  endfacet
  facet normal -0.89143 -0.45316 0
    outer loop
      vertex -46.313 -39.855 3.304
      vertex -46.313 -39.855 0
      vertex -46.1 -40.274 0
    endloop
  endfacet
  facet normal 0 0 1
    outer loop
      vertex -76.563 9.827 7.398
      vertex -78.232 12.525 7.398
      vertex -76.779 9.018 7.398
    endloop
  endfacet
  facet normal 0.25869 -0.96596 0
    outer loop
      vertex -76.214 -37.818 0
      vertex -76.214 -37.818 7.097
      vertex -76.916 -38.006 7.097
    endloop
  endfacet
  facet normal 0 0 1
    outer loop
      vertex -27.498 -36.518 3.304
      vertex -32.768 -36.518 3.304
      vertex -27.498 -36.562 3.304
    endloop
  endfacet
  facet normal 0 0 1
    outer loop
      vertex -32.768 -36.518 3.304
      vertex -46.1 -41.202 3.304
      vertex -18 -45.018 3.304
    endloop
  endfacet
  facet normal -0.25903 -0.96587 0
    outer loop
      vertex -76.214 -37.818 7.097
      vertex -76.214 -37.818 0
      vertex -75.513 -38.006 7.097
    endloop
  endfacet
  facet normal 0 0 -1
    outer loop
      vertex -25.763 -6.009 0
      vertex -27.266 -5.35074 0
      vertex -25.569 -5.284 0
    endloop
  endfacet
  facet normal 0 0 -1
    outer loop
      vertex -27.266 -5.35074 0
      vertex -25.763 -6.009 0
      vertex -25.569 -6.733 0
    endloop
  endfacet
  facet normal 0 0 -1
    outer loop
      vertex -25.039 -7.263 0
      vertex -27.266 -32.768 0
      vertex -25.569 -6.733 0
    endloop
  endfacet
  facet normal 0 0 1
    outer loop
      vertex -72.335 12.525 7.398
      vertex -73.762 9.827 7.398
      vertex -73.545 9.018 7.398
    endloop
  endfacet
  facet normal 0.15542 0.98785 0
    outer loop
      vertex -47.527 -42.24 0
      vertex -47.991 -42.167 3.304
      vertex -47.527 -42.24 3.304
    endloop
  endfacet
  facet normal 0 0 -1
    outer loop
      vertex -27.266 -5.35074 0
      vertex -25.569 -6.733 0
      vertex -27.266 -32.768 0
    endloop
  endfacet
  facet normal 0 0 -1
    outer loop
      vertex -25.039 -7.263 0
      vertex -24.315 -7.457 0
      vertex -27.266 -32.768 0
    endloop
  endfacet
  facet normal 0 0 1
    outer loop
      vertex -75.971 10.418 7.398
      vertex -78.232 12.525 7.398
      vertex -76.563 9.827 7.398
    endloop
  endfacet
  facet normal 0 0 1
    outer loop
      vertex -78.232 12.525 7.398
      vertex -78.232 6.827 7.398
      vertex -76.779 9.018 7.398
    endloop
  endfacet
  facet normal 0 0 1
    outer loop
      vertex -75.162 10.635 7.398
      vertex -78.232 12.525 7.398
      vertex -75.971 10.418 7.398
    endloop
  endfacet
  facet normal 0.45402 0.89099 0
    outer loop
      vertex -48.409 -41.954 0
      vertex -48.409 -41.954 3.304
      vertex -47.991 -42.167 3.304
    endloop
  endfacet
  facet normal 0 0 -1
    outer loop
      vertex -27.266 6.827 0
      vertex -24.315 -4.56 0
      vertex -25.039 -4.754 0
    endloop
  endfacet
  facet normal 0 0 -1
    outer loop
      vertex -27.266 -5.35074 0
      vertex -27.266 6.827 0
      vertex -25.569 -5.284 0
    endloop
  endfacet
  facet normal 0 0 -1
    outer loop
      vertex -25.039 -4.754 0
      vertex -25.569 -5.284 0
      vertex -27.266 6.827 0
    endloop
  endfacet
  facet normal 0 0 1
    outer loop
      vertex -72.335 12.525 7.398
      vertex -78.232 12.525 7.398
      vertex -75.162 10.635 7.398
    endloop
  endfacet
  facet normal 0 0 1
    outer loop
      vertex -72.335 12.525 7.398
      vertex -75.162 10.635 7.398
      vertex -74.354 10.418 7.398
    endloop
  endfacet
  facet normal 0 0 1
    outer loop
      vertex -72.335 12.525 7.398
      vertex -74.354 10.418 7.398
      vertex -73.762 9.827 7.398
    endloop
  endfacet
  facet normal 0.70817 0.70604 0
    outer loop
      vertex -48.409 -41.954 3.304
      vertex -48.409 -41.954 0
      vertex -48.741 -41.621 3.304
    endloop
  endfacet
  facet normal 0.70817 0.70604 0
    outer loop
      vertex -48.741 -41.621 0
      vertex -48.741 -41.621 3.304
      vertex -48.409 -41.954 0
    endloop
  endfacet
  facet normal 0.89143 0.45316 0
    outer loop
      vertex -48.954 -41.202 0
      vertex -48.954 -41.202 3.304
      vertex -48.741 -41.621 3.304
    endloop
  endfacet
  facet normal 0.89143 0.45316 0
    outer loop
      vertex -48.954 -41.202 0
      vertex -48.741 -41.621 3.304
      vertex -48.741 -41.621 0
    endloop
  endfacet
  facet normal 0 0 1
    outer loop
      vertex -75.162 7.401 7.398
      vertex -75.18 6.827 7.398
      vertex -74.354 7.618 7.398
    endloop
  endfacet
  facet normal 0 0 1
    outer loop
      vertex -75.513 -40.435 7.097
      vertex -74.079 -41.48 7.097
      vertex -75 -39.921 7.097
    endloop
  endfacet
  facet normal 0 0 1
    outer loop
      vertex -74.812 -39.22 7.097
      vertex -75 -39.921 7.097
      vertex -74.079 -41.48 7.097
    endloop
  endfacet
  facet normal 0 0 1
    outer loop
      vertex -27.266 -8.802 3.304
      vertex -27.266 -31.476 3.304
      vertex -21.795 -8.802 3.304
    endloop
  endfacet
  facet normal 0 0 1
    outer loop
      vertex -75.971 7.618 7.398
      vertex -75.18 6.827 7.398
      vertex -75.162 7.401 7.398
    endloop
  endfacet
  facet normal 0 0 1
    outer loop
      vertex -74.354 7.618 7.398
      vertex -75.18 6.827 7.398
      vertex -72.335 6.827 7.398
    endloop
  endfacet
  facet normal 0 0 1
    outer loop
      vertex -76.916 -40.435 7.097
      vertex -78.615 -41.48 7.097
      vertex -76.214 -40.623 7.097
    endloop
  endfacet
  facet normal 0 0 -1
    outer loop
      vertex -27.266 -32.768 0
      vertex -24.315 -7.457 0
      vertex -18 -16.384 0
    endloop
  endfacet
  facet normal 0 -1 0
    outer loop
      vertex -27.266 -8.802 7.361
      vertex -27.266 -8.802 3.304
      vertex -21.795 -8.802 3.304
    endloop
  endfacet
  facet normal 0 -1 0
    outer loop
      vertex -27.266 -8.802 7.361
      vertex -21.795 -8.802 3.304
      vertex -21.795 -8.802 7.361
    endloop
  endfacet
  facet normal 0 0 -1
    outer loop
      vertex -23.06 -6.733 0
      vertex -18 -16.384 0
      vertex -23.59 -7.263 0
    endloop
  endfacet
  facet normal 0 0 1
    outer loop
      vertex -76.563 8.21 7.398
      vertex -78.232 6.827 7.398
      vertex -75.971 7.618 7.398
    endloop
  endfacet
  facet normal 0 0 1
    outer loop
      vertex -76.563 8.21 7.398
      vertex -76.779 9.018 7.398
      vertex -78.232 6.827 7.398
    endloop
  endfacet
  facet normal 0 0 1
    outer loop
      vertex -75.18 6.827 7.398
      vertex -75.971 7.618 7.398
      vertex -78.232 6.827 7.398
    endloop
  endfacet
  facet normal 0 0 1
    outer loop
      vertex -74.079 -41.48 7.097
      vertex -74.079 -36.518 7.097
      vertex -74.812 -39.22 7.097
    endloop
  endfacet
  facet normal 0 0 1
    outer loop
      vertex -75 -38.519 7.097
      vertex -74.812 -39.22 7.097
      vertex -74.079 -36.518 7.097
    endloop
  endfacet
  facet normal 0 0 1
    outer loop
      vertex -24.29 -32.736 7.068
      vertex -27.266 -31.476 7.068
      vertex -25.04 -32.937 7.068
    endloop
  endfacet
  facet normal 0 0 1
    outer loop
      vertex -47.991 -42.167 3.304
      vertex -48.409 -41.954 3.304
      vertex -49.027 -45.018 3.304
    endloop
  endfacet
  facet normal -1 0 0
    outer loop
      vertex -27.266 -31.476 7.068
      vertex -27.266 -31.476 3.304
      vertex -27.266 -36.518 7.068
    endloop
  endfacet
  facet normal -1 0 0
    outer loop
      vertex -27.266 -32.768 0
      vertex -27.266 -36.518 7.068
      vertex -27.266 -31.476 3.304
    endloop
  endfacet
  facet normal 0 0 1
    outer loop
      vertex -77.429 -38.519 7.097
      vertex -78.615 -36.518 7.097
      vertex -77.617 -39.22 7.097
    endloop
  endfacet
  facet normal 0 0 1
    outer loop
      vertex -78.615 -41.48 7.097
      vertex -77.617 -39.22 7.097
      vertex -78.615 -36.518 7.097
    endloop
  endfacet
  facet normal 0 0 -1
    outer loop
      vertex -18 -45.018 0
      vertex -22.789 -34.238 0
      vertex -18 -16.384 0
    endloop
  endfacet
  facet normal 0 0 1
    outer loop
      vertex -49.027 -45.018 3.304
      vertex -48.409 -41.954 3.304
      vertex -48.741 -41.621 3.304
    endloop
  endfacet
  facet normal 0 0 1
    outer loop
      vertex -49.027 -40.738 3.304
      vertex -48.954 -40.274 3.304
      vertex -61.046 -40.274 3.304
    endloop
  endfacet
  facet normal 0.96587 -0.25903 0
    outer loop
      vertex -77.617 -39.22 0
      vertex -77.429 -38.519 7.097
      vertex -77.617 -39.22 7.097
    endloop
  endfacet
  facet normal -0.25854 -0.966 0
    outer loop
      vertex -24.29 -32.736 0
      vertex -23.539 -32.937 7.068
      vertex -24.29 -32.736 7.068
    endloop
  endfacet
  facet normal -0.70779 0.70642 0
    outer loop
      vertex -75.513 -40.435 7.097
      vertex -75 -39.921 7.097
      vertex -75.513 -40.435 0
    endloop
  endfacet
  facet normal -0.70779 0.70642 0
    outer loop
      vertex -75 -39.921 0
      vertex -75.513 -40.435 0
      vertex -75 -39.921 7.097
    endloop
  endfacet
  facet normal 0 0 -1
    outer loop
      vertex -61.259 -41.621 0
      vertex -49.027 -45.018 0
      vertex -61.591 -41.954 0
    endloop
  endfacet
  facet normal 0 0 -1
    outer loop
      vertex -49.027 -45.018 0
      vertex -62.009 -42.167 0
      vertex -61.591 -41.954 0
    endloop
  endfacet
  facet normal 0 0 1
    outer loop
      vertex -21.636 -31.476 7.068
      vertex -27.266 -31.476 7.068
      vertex -24.29 -32.736 7.068
    endloop
  endfacet
  facet normal 0 0 1
    outer loop
      vertex -24.29 -32.736 7.068
      vertex -23.539 -32.937 7.068
      vertex -21.636 -31.476 7.068
    endloop
  endfacet
  facet normal 0 0 1
    outer loop
      vertex -49.027 -45.018 3.304
      vertex -18 -45.018 3.304
      vertex -47.063 -42.167 3.304
    endloop
  endfacet
  facet normal 0 0 1
    outer loop
      vertex -47.527 -42.24 3.304
      vertex -49.027 -45.018 3.304
      vertex -47.063 -42.167 3.304
    endloop
  endfacet
  facet normal -0.25903 0.96587 0
    outer loop
      vertex -76.214 -40.623 0
      vertex -76.214 -40.623 7.097
      vertex -75.513 -40.435 0
    endloop
  endfacet
  facet normal -0.25903 0.96587 0
    outer loop
      vertex -75.513 -40.435 7.097
      vertex -75.513 -40.435 0
      vertex -76.214 -40.623 7.097
    endloop
  endfacet
  facet normal 0.98785 0.15542 0
    outer loop
      vertex -49.027 -40.738 0
      vertex -48.954 -41.202 3.304
      vertex -48.954 -41.202 0
    endloop
  endfacet
  facet normal -0.96587 0.25903 0
    outer loop
      vertex -75 -39.921 0
      vertex -75 -39.921 7.097
      vertex -74.812 -39.22 7.097
    endloop
  endfacet
  facet normal -0.98752 0.15749 0
    outer loop
      vertex -46.026 -40.738 0
      vertex -46.1 -41.202 0
      vertex -46.1 -41.202 3.304
    endloop
  endfacet
  facet normal 0 0 -1
    outer loop
      vertex -63.9 -40.274 0
      vertex -74.812 -39.22 0
      vertex -63.687 -39.855 0
    endloop
  endfacet
  facet normal 0.25869 0.96596 0
    outer loop
      vertex -76.214 -40.623 7.097
      vertex -76.214 -40.623 0
      vertex -76.916 -40.435 7.097
    endloop
  endfacet
  facet normal 0 0 -1
    outer loop
      vertex -63.355 -39.522 0
      vertex -63.687 -39.855 0
      vertex -63.974 -36.518 0
    endloop
  endfacet
  facet normal 0 0 -1
    outer loop
      vertex -62.937 -39.309 0
      vertex -63.355 -39.522 0
      vertex -63.974 -36.518 0
    endloop
  endfacet
  facet normal 0.96587 0.25903 0
    outer loop
      vertex -77.429 -39.921 7.097
      vertex -77.617 -39.22 0
      vertex -77.617 -39.22 7.097
    endloop
  endfacet
  facet normal 0 0 -1
    outer loop
      vertex -62.473 -39.236 0
      vertex -63.974 -36.518 0
      vertex -62.009 -39.309 0
    endloop
  endfacet
  facet normal 0 0 1
    outer loop
      vertex -47.527 -39.236 3.304
      vertex -60.973 -36.518 3.304
      vertex -47.991 -39.309 3.304
    endloop
  endfacet
  facet normal 1 0 0
    outer loop
      vertex -74.079 -36.518 7.097
      vertex -74.079 -41.48 7.097
      vertex -74.079 -41.48 3.304
    endloop
  endfacet
  facet normal 0 1 0
    outer loop
      vertex -27.266 -31.476 7.068
      vertex -21.636 -31.476 7.068
      vertex -21.636 -31.476 3.304
    endloop
  endfacet
  facet normal 0 1 0
    outer loop
      vertex -27.266 -31.476 7.068
      vertex -21.636 -31.476 3.304
      vertex -27.266 -31.476 3.304
    endloop
  endfacet
  facet normal 0 0 -1
    outer loop
      vertex -61.591 -39.522 0
      vertex -46.026 -36.518 0
      vertex -61.259 -39.855 0
    endloop
  endfacet
  facet normal 0 0 1
    outer loop
      vertex -21.636 -31.476 3.304
      vertex -21.795 -8.802 3.304
      vertex -27.266 -31.476 3.304
    endloop
  endfacet
  facet normal 0.96587 -0.25903 0
    outer loop
      vertex -77.429 -38.519 7.097
      vertex -77.617 -39.22 0
      vertex -77.429 -38.519 0
    endloop
  endfacet
  facet normal -1 0 0
    outer loop
      vertex -27.266 -32.768 0
      vertex -27.266 -31.476 3.304
      vertex -27.266 -8.802 3.304
    endloop
  endfacet
  facet normal 0 0 1
    outer loop
      vertex -46.313 -39.855 3.304
      vertex -32.768 -36.518 3.304
      vertex -46.645 -39.522 3.304
    endloop
  endfacet
  facet normal 0.70711 -0.70711 0
    outer loop
      vertex -77.429 -38.519 0
      vertex -76.916 -38.006 0
      vertex -77.429 -38.519 7.097
    endloop
  endfacet
  facet normal 0 0 -1
    outer loop
      vertex -22.99 -33.486 0
      vertex -23.539 -32.937 0
      vertex -18 -16.384 0
    endloop
  endfacet
  facet normal 0 0 -1
    outer loop
      vertex -23.539 -32.937 0
      vertex -24.29 -32.736 0
      vertex -18 -16.384 0
    endloop
  endfacet
  facet normal 0 0 -1
    outer loop
      vertex -24.29 -32.736 0
      vertex -25.04 -32.937 0
      vertex -18 -16.384 0
    endloop
  endfacet
  facet normal 0 0 -1
    outer loop
      vertex -61.591 -39.522 0
      vertex -62.009 -39.309 0
      vertex -46.026 -36.518 0
    endloop
  endfacet
  facet normal 0 0 -1
    outer loop
      vertex -63.974 -36.518 0
      vertex -46.026 -36.518 0
      vertex -62.009 -39.309 0
    endloop
  endfacet
  facet normal 0 0 -1
    outer loop
      vertex -62.937 -39.309 0
      vertex -63.974 -36.518 0
      vertex -62.473 -39.236 0
    endloop
  endfacet
  facet normal 0 0 1
    outer loop
      vertex -47.063 -39.309 3.304
      vertex -32.768 -36.518 3.304
      vertex -47.527 -39.236 3.304
    endloop
  endfacet
  facet normal 0 0 1
    outer loop
      vertex -60.973 -36.518 3.304
      vertex -47.527 -39.236 3.304
      vertex -32.768 -36.518 3.304
    endloop
  endfacet
  facet normal 0 0 1
    outer loop
      vertex -46.1 -40.274 3.304
      vertex -32.768 -36.518 3.304
      vertex -46.313 -39.855 3.304
    endloop
  endfacet
  facet normal 0 0 1
    outer loop
      vertex -46.645 -39.522 3.304
      vertex -32.768 -36.518 3.304
      vertex -47.063 -39.309 3.304
    endloop
  endfacet
  facet normal 0 0 1
    outer loop
      vertex -32.768 -36.518 3.304
      vertex -46.1 -40.274 3.304
      vertex -46.026 -40.738 3.304
    endloop
  endfacet
  facet normal 0 0 1
    outer loop
      vertex -32.768 -36.518 3.304
      vertex -46.026 -40.738 3.304
      vertex -46.1 -41.202 3.304
    endloop
  endfacet
  facet normal 0 0 1
    outer loop
      vertex -46.313 -41.621 3.304
      vertex -18 -45.018 3.304
      vertex -46.1 -41.202 3.304
    endloop
  endfacet
  facet normal 0 0 1
    outer loop
      vertex -46.645 -41.954 3.304
      vertex -18 -45.018 3.304
      vertex -46.313 -41.621 3.304
    endloop
  endfacet
  facet normal 0 0 1
    outer loop
      vertex -24.29 -35.739 7.068
      vertex -21.636 -36.562 7.068
      vertex -23.539 -35.538 7.068
    endloop
  endfacet
  facet normal 0 0 1
    outer loop
      vertex -25.04 -35.538 7.068
      vertex -27.266 -36.518 7.068
      vertex -24.29 -35.739 7.068
    endloop
  endfacet
  facet normal 0 0 -1
    outer loop
      vertex -23.539 -35.538 0
      vertex -18 -45.018 0
      vertex -24.29 -35.739 0
    endloop
  endfacet
  facet normal -0.89143 0.45316 0
    outer loop
      vertex -46.1 -41.202 3.304
      vertex -46.1 -41.202 0
      vertex -46.313 -41.621 3.304
    endloop
  endfacet
  facet normal 0 0 1
    outer loop
      vertex -22.789 -34.238 7.068
      vertex -22.99 -34.988 7.068
      vertex -21.636 -36.562 7.068
    endloop
  endfacet
  facet normal 0 0 1
    outer loop
      vertex -22.99 -34.988 7.068
      vertex -23.539 -35.538 7.068
      vertex -21.636 -36.562 7.068
    endloop
  endfacet
  facet normal -0.70817 0.70604 0
    outer loop
      vertex -46.645 -41.954 0
      vertex -46.645 -41.954 3.304
      vertex -46.313 -41.621 3.304
    endloop
  endfacet
  facet normal 0 0 -1
    outer loop
      vertex -22.789 -34.238 0
      vertex -18 -45.018 0
      vertex -22.99 -34.988 0
    endloop
  endfacet
  facet normal 0.96616 -0.25796 0
    outer loop
      vertex -76.563 9.827 7.398
      vertex -76.779 9.018 7.398
      vertex -76.563 9.827 0
    endloop
  endfacet
  facet normal -0.45402 0.89099 0
    outer loop
      vertex -46.645 -41.954 3.304
      vertex -46.645 -41.954 0
      vertex -47.063 -42.167 0
    endloop
  endfacet
  facet normal -0.45402 0.89099 0
    outer loop
      vertex -46.645 -41.954 3.304
      vertex -47.063 -42.167 0
      vertex -47.063 -42.167 3.304
    endloop
  endfacet
  facet normal -0.15542 0.98785 0
    outer loop
      vertex -47.527 -42.24 0
      vertex -47.527 -42.24 3.304
      vertex -47.063 -42.167 0
    endloop
  endfacet
  facet normal -0.15542 0.98785 0
    outer loop
      vertex -47.063 -42.167 3.304
      vertex -47.063 -42.167 0
      vertex -47.527 -42.24 3.304
    endloop
  endfacet
  facet normal 0 0 1
    outer loop
      vertex -23.539 -32.937 7.068
      vertex -22.99 -33.486 7.068
      vertex -21.636 -31.476 7.068
    endloop
  endfacet
  facet normal 0 0 1
    outer loop
      vertex -22.99 -33.486 7.068
      vertex -22.789 -34.238 7.068
      vertex -21.636 -31.476 7.068
    endloop
  endfacet
  facet normal 0 0 1
    outer loop
      vertex -21.636 -36.562 7.068
      vertex -21.636 -31.476 7.068
      vertex -22.789 -34.238 7.068
    endloop
  endfacet
  facet normal 0 0 -1
    outer loop
      vertex -22.99 -33.486 0
      vertex -18 -16.384 0
      vertex -22.789 -34.238 0
    endloop
  endfacet
  facet normal 0.70651 -0.7077 0
    outer loop
      vertex -75.971 10.418 7.398
      vertex -76.563 9.827 7.398
      vertex -76.563 9.827 0
    endloop
  endfacet
  facet normal 0.70651 -0.7077 0
    outer loop
      vertex -75.971 10.418 7.398
      vertex -76.563 9.827 0
      vertex -75.971 10.418 0
    endloop
  endfacet
  facet normal 0 -1 0
    outer loop
      vertex -27.498 -36.562 3.304
      vertex -21.636 -36.562 7.068
      vertex -27.498 -36.562 7.068
    endloop
  endfacet
  facet normal 0 0 1
    outer loop
      vertex -46.645 -41.954 3.304
      vertex -47.063 -42.167 3.304
      vertex -18 -45.018 3.304
    endloop
  endfacet
  facet normal 0 0 1
    outer loop
      vertex -47.991 -42.167 3.304
      vertex -49.027 -45.018 3.304
      vertex -47.527 -42.24 3.304
    endloop
  endfacet
  facet normal 0 0 -1
    outer loop
      vertex -25.04 -35.538 0
      vertex -24.29 -35.739 0
      vertex -18 -45.018 0
    endloop
  endfacet
  facet normal 0 0 -1
    outer loop
      vertex -23.539 -35.538 0
      vertex -22.99 -34.988 0
      vertex -18 -45.018 0
    endloop
  endfacet
  facet normal 0 0 -1
    outer loop
      vertex -27.266 -32.768 0
      vertex -18 -16.384 0
      vertex -25.04 -32.937 0
    endloop
  endfacet
  facet normal 0 0 -1
    outer loop
      vertex -61.259 -41.621 0
      vertex -61.046 -41.202 0
      vertex -49.027 -45.018 0
    endloop
  endfacet
  facet normal 0 0 -1
    outer loop
      vertex -46.026 -36.518 0
      vertex -48.409 -39.522 0
      vertex -61.259 -39.855 0
    endloop
  endfacet
  facet normal 0 0 -1
    outer loop
      vertex -60.973 -40.738 0
      vertex -48.954 -41.202 0
      vertex -61.046 -41.202 0
    endloop
  endfacet
  facet normal 0 0 -1
    outer loop
      vertex -61.046 -40.274 0
      vertex -49.027 -40.738 0
      vertex -60.973 -40.738 0
    endloop
  endfacet
  facet normal 0 0 -1
    outer loop
      vertex -49.027 -40.738 0
      vertex -48.954 -41.202 0
      vertex -60.973 -40.738 0
    endloop
  endfacet
  facet normal 0.98785 0.15542 0
    outer loop
      vertex -48.954 -41.202 3.304
      vertex -49.027 -40.738 0
      vertex -49.027 -40.738 3.304
    endloop
  endfacet
  facet normal 0.70779 0.70642 0
    outer loop
      vertex -76.916 -40.435 7.097
      vertex -76.916 -40.435 0
      vertex -77.429 -39.921 7.097
    endloop
  endfacet
  facet normal 0 0 -1
    outer loop
      vertex -25.59 -33.486 0
      vertex -27.266 -32.768 0
      vertex -25.04 -32.937 0
    endloop
  endfacet
  facet normal 0 0 -1
    outer loop
      vertex -62.937 -42.167 0
      vertex -63.974 -45.018 0
      vertex -63.355 -41.954 0
    endloop
  endfacet
  facet normal 0 0 -1
    outer loop
      vertex -63.974 -45.018 0
      vertex -62.937 -42.167 0
      vertex -62.473 -42.24 0
    endloop
  endfacet
  facet normal 0 0 -1
    outer loop
      vertex -62.473 -42.24 0
      vertex -62.009 -42.167 0
      vertex -63.974 -45.018 0
    endloop
  endfacet
  facet normal 0 0 -1
    outer loop
      vertex -62.009 -42.167 0
      vertex -49.027 -45.018 0
      vertex -63.974 -45.018 0
    endloop
  endfacet
  facet normal 0.98785 -0.15542 0
    outer loop
      vertex -49.027 -40.738 3.304
      vertex -49.027 -40.738 0
      vertex -48.954 -40.274 3.304
    endloop
  endfacet
  facet normal 0.98785 -0.15542 0
    outer loop
      vertex -48.954 -40.274 0
      vertex -48.954 -40.274 3.304
      vertex -49.027 -40.738 0
    endloop
  endfacet
  facet normal 0 0 -1
    outer loop
      vertex -25.59 -34.988 0
      vertex -25.04 -35.538 0
      vertex -27.266 -36.518 0
    endloop
  endfacet
  facet normal 0.89143 -0.45316 0
    outer loop
      vertex -48.954 -40.274 3.304
      vertex -48.954 -40.274 0
      vertex -48.741 -39.855 3.304
    endloop
  endfacet
  facet normal 0.89143 -0.45316 0
    outer loop
      vertex -48.741 -39.855 0
      vertex -48.741 -39.855 3.304
      vertex -48.954 -40.274 0
    endloop
  endfacet
  facet normal 0 0 -1
    outer loop
      vertex -63.974 -40.738 0
      vertex -74.812 -39.22 0
      vertex -63.9 -40.274 0
    endloop
  endfacet
  facet normal 0 0 -1
    outer loop
      vertex -63.687 -41.621 0
      vertex -63.355 -41.954 0
      vertex -63.974 -45.018 0
    endloop
  endfacet
  facet normal 0 0 1
    outer loop
      vertex -72.335 6.827 3.304
      vertex -27.266 6.827 3.304
      vertex -72.335 12.525 3.304
    endloop
  endfacet
  facet normal 0 0 1
    outer loop
      vertex -18 15 3.304
      vertex -72.335 12.525 3.304
      vertex -27.266 6.827 3.304
    endloop
  endfacet
  facet normal 0.70817 -0.70604 0
    outer loop
      vertex -48.409 -39.522 3.304
      vertex -48.741 -39.855 3.304
      vertex -48.741 -39.855 0
    endloop
  endfacet
  facet normal 0 0 -1
    outer loop
      vertex -74.354 7.618 0
      vertex -73.762 8.21 0
      vertex -27.266 6.827 0
    endloop
  endfacet
  facet normal 0 0 -1
    outer loop
      vertex -73.545 9.018 0
      vertex -27.266 6.827 0
      vertex -73.762 8.21 0
    endloop
  endfacet
  facet normal 0 -1 0
    outer loop
      vertex -72.335 6.827 3.304
      vertex -27.266 6.827 0
      vertex -27.266 6.827 3.304
    endloop
  endfacet
  facet normal -1 0 0
    outer loop
      vertex -27.266 -5.35074 0
      vertex -27.266 -2.861 3.304
      vertex -27.266 6.827 0
    endloop
  endfacet
  facet normal 0 0 1
    outer loop
      vertex -63.9 -41.202 3.304
      vertex -74.079 -41.48 3.304
      vertex -63.687 -41.621 3.304
    endloop
  endfacet
  facet normal 0 0 -1
    outer loop
      vertex -27.266 6.827 0
      vertex -73.545 9.018 0
      vertex -73.762 9.827 0
    endloop
  endfacet
  facet normal 0 0 -1
    outer loop
      vertex -74.354 10.418 0
      vertex -18 15 0
      vertex -73.762 9.827 0
    endloop
  endfacet
  facet normal 0 0 -1
    outer loop
      vertex -27.266 6.827 0
      vertex -73.762 9.827 0
      vertex -18 15 0
    endloop
  endfacet
  facet normal -0.70711 -0.70711 0
    outer loop
      vertex -75.513 -38.006 7.097
      vertex -75 -38.519 0
      vertex -75 -38.519 7.097
    endloop
  endfacet
  facet normal 0 0 1
    outer loop
      vertex -63.974 -40.738 3.304
      vertex -74.079 -41.48 3.304
      vertex -63.9 -41.202 3.304
    endloop
  endfacet
  facet normal -0.96587 -0.25903 0
    outer loop
      vertex -75 -38.519 7.097
      vertex -75 -38.519 0
      vertex -74.812 -39.22 7.097
    endloop
  endfacet
  facet normal 0 0 1
    outer loop
      vertex -27.266 -2.861 7.361
      vertex -24.315 -4.56 7.361
      vertex -21.795 -2.861 7.361
    endloop
  endfacet
  facet normal 0.45402 -0.89099 0
    outer loop
      vertex -47.991 -39.309 0
      vertex -47.991 -39.309 3.304
      vertex -48.409 -39.522 3.304
    endloop
  endfacet
  facet normal 0.96587 0.25903 0
    outer loop
      vertex -77.429 -39.921 7.097
      vertex -77.429 -39.921 0
      vertex -77.617 -39.22 0
    endloop
  endfacet
  facet normal 0 1 0
    outer loop
      vertex -27.266 -2.861 3.304
      vertex -27.266 -2.861 7.361
      vertex -21.795 -2.861 3.304
    endloop
  endfacet
  facet normal 0 1 0
    outer loop
      vertex -21.795 -2.861 7.361
      vertex -21.795 -2.861 3.304
      vertex -27.266 -2.861 7.361
    endloop
  endfacet
  facet normal 0.15542 -0.98785 0
    outer loop
      vertex -47.991 -39.309 3.304
      vertex -47.991 -39.309 0
      vertex -47.527 -39.236 0
    endloop
  endfacet
  facet normal 0.15542 -0.98785 0
    outer loop
      vertex -47.991 -39.309 3.304
      vertex -47.527 -39.236 0
      vertex -47.527 -39.236 3.304
    endloop
  endfacet
  facet normal 0 0 -1
    outer loop
      vertex -76.563 8.21 0
      vertex -80.963 6.827 0
      vertex -76.779 9.018 0
    endloop
  endfacet
  facet normal 0 0 1
    outer loop
      vertex -18 15 3.304
      vertex -27.266 6.827 3.304
      vertex -21.795 -2.861 3.304
    endloop
  endfacet
  facet normal 0 0 1
    outer loop
      vertex -27.266 -2.861 3.304
      vertex -21.795 -2.861 3.304
      vertex -27.266 6.827 3.304
    endloop
  endfacet
  facet normal -0.15542 -0.98785 0
    outer loop
      vertex -47.063 -39.309 3.304
      vertex -47.527 -39.236 3.304
      vertex -47.527 -39.236 0
    endloop
  endfacet
  facet normal 0 0 -1
    outer loop
      vertex -76.563 9.827 0
      vertex -92 15 0
      vertex -75.971 10.418 0
    endloop
  endfacet
  facet normal -0.45402 -0.89099 0
    outer loop
      vertex -46.645 -39.522 0
      vertex -46.645 -39.522 3.304
      vertex -47.063 -39.309 3.304
    endloop
  endfacet
  facet normal 0.70711 -0.70711 0
    outer loop
      vertex -76.916 -38.006 7.097
      vertex -77.429 -38.519 7.097
      vertex -76.916 -38.006 0
    endloop
  endfacet
  facet normal 0 0 -1
    outer loop
      vertex -92 15 0
      vertex -18 15 0
      vertex -75.162 10.635 0
    endloop
  endfacet
  facet normal 0 0 -1
    outer loop
      vertex -75.162 10.635 0
      vertex -75.971 10.418 0
      vertex -92 15 0
    endloop
  endfacet
  facet normal 0 0 -1
    outer loop
      vertex -74.354 10.418 0
      vertex -75.162 10.635 0
      vertex -18 15 0
    endloop
  endfacet
  facet normal -0.70817 -0.70604 0
    outer loop
      vertex -46.645 -39.522 3.304
      vertex -46.645 -39.522 0
      vertex -46.313 -39.855 3.304
    endloop
  endfacet
  facet normal 0 0 1
    outer loop
      vertex -23.59 -4.754 7.361
      vertex -21.795 -2.861 7.361
      vertex -24.315 -4.56 7.361
    endloop
  endfacet
  facet normal 0.25869 -0.96596 0
    outer loop
      vertex -76.214 -37.818 0
      vertex -76.916 -38.006 7.097
      vertex -76.916 -38.006 0
    endloop
  endfacet
  facet normal -0.89143 -0.45316 0
    outer loop
      vertex -46.313 -39.855 3.304
      vertex -46.1 -40.274 0
      vertex -46.1 -40.274 3.304
    endloop
  endfacet
  facet normal 0 0 -1
    outer loop
      vertex -27.266 6.827 0
      vertex -80.963 6.827 0
      vertex -75.162 7.401 0
    endloop
  endfacet
  facet normal 0 0 -1
    outer loop
      vertex -75.162 7.401 0
      vertex -74.354 7.618 0
      vertex -27.266 6.827 0
    endloop
  endfacet
  facet normal 0 0 1
    outer loop
      vertex -21.795 -8.802 7.361
      vertex -21.795 -2.861 7.361
      vertex -22.866 -6.009 7.361
    endloop
  endfacet
  facet normal 0.25907 -0.96586 0
    outer loop
      vertex -75.162 10.635 7.398
      vertex -75.971 10.418 7.398
      vertex -75.971 10.418 0
    endloop
  endfacet
  facet normal 0.25907 -0.96586 0
    outer loop
      vertex -75.162 10.635 7.398
      vertex -75.971 10.418 0
      vertex -75.162 10.635 0
    endloop
  endfacet
  facet normal -0.98752 -0.15749 0
    outer loop
      vertex -46.026 -40.738 0
      vertex -46.026 -40.738 3.304
      vertex -46.1 -40.274 0
    endloop
  endfacet
  facet normal -0.98752 -0.15749 0
    outer loop
      vertex -46.1 -40.274 3.304
      vertex -46.1 -40.274 0
      vertex -46.026 -40.738 3.304
    endloop
  endfacet
  facet normal 0 0 1
    outer loop
      vertex -23.59 -4.754 7.361
      vertex -23.06 -5.284 7.361
      vertex -21.795 -2.861 7.361
    endloop
  endfacet
  facet normal 0 0 1
    outer loop
      vertex -23.06 -5.284 7.361
      vertex -22.866 -6.009 7.361
      vertex -21.795 -2.861 7.361
    endloop
  endfacet
  facet normal -0.25937 -0.96578 0
    outer loop
      vertex -74.354 10.418 7.398
      vertex -75.162 10.635 7.398
      vertex -75.162 10.635 0
    endloop
  endfacet
  facet normal -0.98752 0.15749 0
    outer loop
      vertex -46.026 -40.738 3.304
      vertex -46.026 -40.738 0
      vertex -46.1 -41.202 3.304
    endloop
  endfacet
  facet normal 0 1 0
    outer loop
      vertex -72.335 12.525 7.398
      vertex -72.335 12.525 3.304
      vertex -78.232 12.525 7.398
    endloop
  endfacet
  facet normal 0 1 0
    outer loop
      vertex -78.232 12.525 3.304
      vertex -78.232 12.525 7.398
      vertex -72.335 12.525 3.304
    endloop
  endfacet
  facet normal -0.25903 -0.96587 0
    outer loop
      vertex -75.513 -38.006 7.097
      vertex -76.214 -37.818 0
      vertex -75.513 -38.006 0
    endloop
  endfacet
  facet normal 0 0 -1
    outer loop
      vertex -80.963 6.827 0
      vertex -92 15 0
      vertex -76.779 9.018 0
    endloop
  endfacet
  facet normal 0 0 -1
    outer loop
      vertex -76.563 8.21 0
      vertex -75.971 7.618 0
      vertex -80.963 6.827 0
    endloop
  endfacet
  facet normal 0 0 -1
    outer loop
      vertex -75.971 7.618 0
      vertex -75.162 7.401 0
      vertex -80.963 6.827 0
    endloop
  endfacet
  facet normal 0 0 1
    outer loop
      vertex -61.259 -41.621 3.304
      vertex -49.027 -45.018 3.304
      vertex -61.046 -41.202 3.304
    endloop
  endfacet
  facet normal -0.96601 -0.25849 0
    outer loop
      vertex -23.06 -5.284 0
      vertex -22.866 -6.009 7.361
      vertex -23.06 -5.284 7.361
    endloop
  endfacet
  facet normal 0.70779 0.70642 0
    outer loop
      vertex -77.429 -39.921 0
      vertex -77.429 -39.921 7.097
      vertex -76.916 -40.435 0
    endloop
  endfacet
  facet normal -0.70711 -0.70711 0
    outer loop
      vertex -23.59 -4.754 7.361
      vertex -23.06 -5.284 0
      vertex -23.06 -5.284 7.361
    endloop
  endfacet
  facet normal 0 0 -1
    outer loop
      vertex -76.563 9.827 0
      vertex -76.779 9.018 0
      vertex -92 15 0
    endloop
  endfacet
  facet normal 0 0 -1
    outer loop
      vertex -84.531 6.827 0
      vertex -92 15 0
      vertex -80.963 6.827 0
    endloop
  endfacet
  facet normal 0 0 -1
    outer loop
      vertex -92 15 0
      vertex -84.531 6.827 0
      vertex -88.117 6.827 0
    endloop
  endfacet
  facet normal 0 0 -1
    outer loop
      vertex -88.117 6.827 0
      vertex -88.117 -36.518 0
      vertex -92 15 0
    endloop
  endfacet
  facet normal -0.96587 0.25903 0
    outer loop
      vertex -74.812 -39.22 0
      vertex -75 -39.921 0
      vertex -74.812 -39.22 7.097
    endloop
  endfacet
  facet normal 0 0 -1
    outer loop
      vertex -84.531 6.827 0
      vertex -80.963 6.827 0
      vertex -84.531 -36.518 0
    endloop
  endfacet
  facet normal 0 0 -1
    outer loop
      vertex -63.974 -36.518 0
      vertex -63.687 -39.855 0
      vertex -74.812 -39.22 0
    endloop
  endfacet
  facet normal 0.25869 0.96596 0
    outer loop
      vertex -76.916 -40.435 7.097
      vertex -76.214 -40.623 0
      vertex -76.916 -40.435 0
    endloop
  endfacet
  facet normal 0 0 1
    outer loop
      vertex -22.866 -6.009 7.361
      vertex -23.06 -6.733 7.361
      vertex -21.795 -8.802 7.361
    endloop
  endfacet
  facet normal 0 0 1
    outer loop
      vertex -23.06 -6.733 7.361
      vertex -23.59 -7.263 7.361
      vertex -21.795 -8.802 7.361
    endloop
  endfacet
  facet normal 0 0 1
    outer loop
      vertex -24.315 -7.457 7.361
      vertex -21.795 -8.802 7.361
      vertex -23.59 -7.263 7.361
    endloop
  endfacet
  facet normal -0.70711 -0.70711 0
    outer loop
      vertex -75.513 -38.006 7.097
      vertex -75.513 -38.006 0
      vertex -75 -38.519 0
    endloop
  endfacet
  facet normal 0 0 -1
    outer loop
      vertex -76.214 -37.818 0
      vertex -80.963 -36.518 0
      vertex -63.974 -36.518 0
    endloop
  endfacet
  facet normal -0.96587 -0.25903 0
    outer loop
      vertex -75 -38.519 0
      vertex -74.812 -39.22 0
      vertex -74.812 -39.22 7.097
    endloop
  endfacet
  facet normal 0 0 1
    outer loop
      vertex -21.795 -8.802 7.361
      vertex -24.315 -7.457 7.361
      vertex -27.266 -8.802 7.361
    endloop
  endfacet
  facet normal 0 0 1
    outer loop
      vertex -62.473 -39.236 3.304
      vertex -60.973 -36.518 3.304
      vertex -62.937 -39.309 3.304
    endloop
  endfacet
  facet normal 0 0 -1
    outer loop
      vertex -77.429 -38.519 0
      vertex -77.617 -39.22 0
      vertex -80.963 -36.518 0
    endloop
  endfacet
  facet normal 0 0 -1
    outer loop
      vertex -80.963 -36.518 0
      vertex -76.214 -37.818 0
      vertex -76.916 -38.006 0
    endloop
  endfacet
  facet normal 0 0 -1
    outer loop
      vertex -76.916 -38.006 0
      vertex -77.429 -38.519 0
      vertex -80.963 -36.518 0
    endloop
  endfacet
  facet normal 0 0 1
    outer loop
      vertex -77.429 -39.921 7.097
      vertex -77.617 -39.22 7.097
      vertex -78.615 -41.48 7.097
    endloop
  endfacet
  facet normal 0 0 1
    outer loop
      vertex -77.429 -38.519 7.097
      vertex -76.916 -38.006 7.097
      vertex -78.615 -36.518 7.097
    endloop
  endfacet
  facet normal 0 0 -1
    outer loop
      vertex -27.266 -36.518 0
      vertex -27.266 -32.768 0
      vertex -25.791 -34.238 0
    endloop
  endfacet
  facet normal 0 0 -1
    outer loop
      vertex -25.791 -34.238 0
      vertex -25.59 -34.988 0
      vertex -27.266 -36.518 0
    endloop
  endfacet
  facet normal 0 0 -1
    outer loop
      vertex -25.59 -33.486 0
      vertex -25.791 -34.238 0
      vertex -27.266 -32.768 0
    endloop
  endfacet
  facet normal 0 0 1
    outer loop
      vertex -61.259 -39.855 3.304
      vertex -60.973 -36.518 3.304
      vertex -61.591 -39.522 3.304
    endloop
  endfacet
  facet normal 0 0 -1
    outer loop
      vertex -75.513 -38.006 0
      vertex -76.214 -37.818 0
      vertex -63.974 -36.518 0
    endloop
  endfacet
  facet normal 0 0 1
    outer loop
      vertex -78.615 -36.518 3.304
      vertex -80.963 -36.518 3.304
      vertex -78.615 -41.48 3.304
    endloop
  endfacet
  facet normal -1 0 0
    outer loop
      vertex -78.615 -41.48 7.097
      vertex -78.615 -36.518 7.097
      vertex -78.615 -41.48 3.304
    endloop
  endfacet
  facet normal -1 0 0
    outer loop
      vertex -78.615 -36.518 3.304
      vertex -78.615 -41.48 3.304
      vertex -78.615 -36.518 7.097
    endloop
  endfacet
  facet normal 0 0 -1
    outer loop
      vertex -25.04 -35.538 0
      vertex -18 -45.018 0
      vertex -27.266 -36.518 0
    endloop
  endfacet
  facet normal 0 0 1
    outer loop
      vertex -60.973 -40.738 3.304
      vertex -61.046 -41.202 3.304
      vertex -48.954 -41.202 3.304
    endloop
  endfacet
  facet normal 0 0 1
    outer loop
      vertex -75.513 -40.435 7.097
      vertex -76.214 -40.623 7.097
      vertex -74.079 -41.48 7.097
    endloop
  endfacet
  facet normal 0 0 1
    outer loop
      vertex -77.429 -39.921 7.097
      vertex -78.615 -41.48 7.097
      vertex -76.916 -40.435 7.097
    endloop
  endfacet
  facet normal 0 0 1
    outer loop
      vertex -74.079 -41.48 7.097
      vertex -76.214 -40.623 7.097
      vertex -78.615 -41.48 7.097
    endloop
  endfacet
  facet normal 0 -1 0
    outer loop
      vertex -78.615 -41.48 7.097
      vertex -78.615 -41.48 3.304
      vertex -74.079 -41.48 3.304
    endloop
  endfacet
  facet normal 0 -1 0
    outer loop
      vertex -78.615 -41.48 7.097
      vertex -74.079 -41.48 3.304
      vertex -74.079 -41.48 7.097
    endloop
  endfacet
  facet normal 0 0 1
    outer loop
      vertex -62.009 -39.309 3.304
      vertex -60.973 -36.518 3.304
      vertex -62.473 -39.236 3.304
    endloop
  endfacet
  facet normal 0 0 1
    outer loop
      vertex -61.591 -39.522 3.304
      vertex -60.973 -36.518 3.304
      vertex -62.009 -39.309 3.304
    endloop
  endfacet
  facet normal 0 0 1
    outer loop
      vertex -60.973 -36.518 3.304
      vertex -74.079 -36.518 3.304
      vertex -62.937 -39.309 3.304
    endloop
  endfacet
  facet normal 0 0 1
    outer loop
      vertex -63.355 -39.522 3.304
      vertex -62.937 -39.309 3.304
      vertex -74.079 -36.518 3.304
    endloop
  endfacet
  facet normal 0 0 -1
    outer loop
      vertex -49.027 -45.018 0
      vertex -47.063 -42.167 0
      vertex -18 -45.018 0
    endloop
  endfacet
  facet normal 0.45402 0.89099 0
    outer loop
      vertex -62.937 -42.167 0
      vertex -63.355 -41.954 0
      vertex -63.355 -41.954 3.304
    endloop
  endfacet
  facet normal 0 0 1
    outer loop
      vertex -74.079 -41.48 3.304
      vertex -78.615 -41.48 3.304
      vertex -92 -45.018 3.304
    endloop
  endfacet
  facet normal 0 0 1
    outer loop
      vertex -92 -45.018 3.304
      vertex -62.937 -42.167 3.304
      vertex -74.079 -41.48 3.304
    endloop
  endfacet
  facet normal 0 0 -1
    outer loop
      vertex -48.409 -41.954 0
      vertex -47.991 -42.167 0
      vertex -49.027 -45.018 0
    endloop
  endfacet
  facet normal 0.70817 0.70604 0
    outer loop
      vertex -63.687 -41.621 0
      vertex -63.687 -41.621 3.304
      vertex -63.355 -41.954 3.304
    endloop
  endfacet
  facet normal 0.70817 0.70604 0
    outer loop
      vertex -63.687 -41.621 0
      vertex -63.355 -41.954 3.304
      vertex -63.355 -41.954 0
    endloop
  endfacet
  facet normal 0 0 -1
    outer loop
      vertex -49.027 -45.018 0
      vertex -61.046 -41.202 0
      vertex -48.741 -41.621 0
    endloop
  endfacet
  facet normal 0 0 -1
    outer loop
      vertex -48.741 -41.621 0
      vertex -48.409 -41.954 0
      vertex -49.027 -45.018 0
    endloop
  endfacet
  facet normal 0 0 1
    outer loop
      vertex -80.963 -36.518 3.304
      vertex -84.531 -36.518 3.304
      vertex -78.615 -41.48 3.304
    endloop
  endfacet
  facet normal 0.89143 0.45316 0
    outer loop
      vertex -63.687 -41.621 3.304
      vertex -63.687 -41.621 0
      vertex -63.9 -41.202 0
    endloop
  endfacet
  facet normal 0 0 -1
    outer loop
      vertex -48.954 -41.202 0
      vertex -48.741 -41.621 0
      vertex -61.046 -41.202 0
    endloop
  endfacet
  facet normal 0 1 0
    outer loop
      vertex -84.531 -36.518 0
      vertex -88.117 -36.518 0
      vertex -88.117 -36.518 3.304
    endloop
  endfacet
  facet normal 0 1 0
    outer loop
      vertex -84.531 -36.518 0
      vertex -88.117 -36.518 3.304
      vertex -84.531 -36.518 3.304
    endloop
  endfacet
  facet normal 1 0 0
    outer loop
      vertex -21.636 -36.562 7.068
      vertex -21.636 -31.476 3.304
      vertex -21.636 -31.476 7.068
    endloop
  endfacet
  facet normal 1 0 0
    outer loop
      vertex -88.117 6.827 0
      vertex -88.117 6.827 3.304
      vertex -88.117 -36.518 0
    endloop
  endfacet
  facet normal 0 0 -1
    outer loop
      vertex -46.026 -40.738 0
      vertex -27.266 -36.518 0
      vertex -46.1 -41.202 0
    endloop
  endfacet
  facet normal -0.98785 0.15542 0
    outer loop
      vertex -60.973 -40.738 3.304
      vertex -61.046 -41.202 0
      vertex -61.046 -41.202 3.304
    endloop
  endfacet
  facet normal -0.89143 0.45316 0
    outer loop
      vertex -61.046 -41.202 3.304
      vertex -61.046 -41.202 0
      vertex -61.259 -41.621 0
    endloop
  endfacet
  facet normal 0 0 1
    outer loop
      vertex -84.531 -36.518 3.304
      vertex -88.117 -36.518 3.304
      vertex -92 -45.018 3.304
    endloop
  endfacet
  facet normal 0 0 1
    outer loop
      vertex -92 -45.018 3.304
      vertex -78.615 -41.48 3.304
      vertex -84.531 -36.518 3.304
    endloop
  endfacet
  facet normal 0 0 1
    outer loop
      vertex -27.266 -2.861 7.361
      vertex -25.039 -4.754 7.361
      vertex -24.315 -4.56 7.361
    endloop
  endfacet
  facet normal 0 0 1
    outer loop
      vertex -21.795 -2.861 3.304
      vertex -21.795 -8.802 3.304
      vertex -18 15 3.304
    endloop
  endfacet
  facet normal 0 0 1
    outer loop
      vertex -18 -45.018 3.304
      vertex -18 15 3.304
      vertex -21.795 -8.802 3.304
    endloop
  endfacet
  facet normal 0 0 1
    outer loop
      vertex -21.795 -8.802 3.304
      vertex -21.636 -31.476 3.304
      vertex -18 -45.018 3.304
    endloop
  endfacet
  facet normal -0.45402 0.89099 0
    outer loop
      vertex -61.591 -41.954 0
      vertex -62.009 -42.167 0
      vertex -62.009 -42.167 3.304
    endloop
  endfacet
  facet normal 1 0 0
    outer loop
      vertex -21.795 -8.802 7.361
      vertex -21.795 -2.861 3.304
      vertex -21.795 -2.861 7.361
    endloop
  endfacet
  facet normal 0 0 1
    outer loop
      vertex -92 15 3.304
      vertex -78.232 12.525 3.304
      vertex -72.335 12.525 3.304
    endloop
  endfacet
  facet normal 1 0 0
    outer loop
      vertex -21.795 -8.802 7.361
      vertex -21.795 -8.802 3.304
      vertex -21.795 -2.861 3.304
    endloop
  endfacet
  facet normal -0.15542 0.98785 0
    outer loop
      vertex -62.009 -42.167 3.304
      vertex -62.009 -42.167 0
      vertex -62.473 -42.24 0
    endloop
  endfacet
  facet normal -0.96578 0.25937 0
    outer loop
      vertex -73.545 9.018 0
      vertex -73.762 8.21 0
      vertex -73.762 8.21 7.398
    endloop
  endfacet
  facet normal -0.25849 -0.96601 0
    outer loop
      vertex -24.315 -4.56 0
      vertex -23.59 -4.754 0
      vertex -24.315 -4.56 7.361
    endloop
  endfacet
  facet normal -0.25849 -0.96601 0
    outer loop
      vertex -23.59 -4.754 7.361
      vertex -24.315 -4.56 7.361
      vertex -23.59 -4.754 0
    endloop
  endfacet
  facet normal -0.70711 0.70711 0
    outer loop
      vertex -73.762 8.21 7.398
      vertex -73.762 8.21 0
      vertex -74.354 7.618 0
    endloop
  endfacet
  facet normal -0.96592 0.25883 0
    outer loop
      vertex -23.06 -6.733 7.361
      vertex -22.866 -6.009 7.361
      vertex -23.06 -6.733 0
    endloop
  endfacet
  facet normal -0.96592 0.25883 0
    outer loop
      vertex -22.866 -6.009 0
      vertex -23.06 -6.733 0
      vertex -22.866 -6.009 7.361
    endloop
  endfacet
  facet normal 0.25886 0.96591 0
    outer loop
      vertex -24.29 -35.739 0
      vertex -25.04 -35.538 0
      vertex -24.29 -35.739 7.068
    endloop
  endfacet
  facet normal -0.96601 -0.25849 0
    outer loop
      vertex -22.866 -6.009 7.361
      vertex -23.06 -5.284 0
      vertex -22.866 -6.009 0
    endloop
  endfacet
  facet normal -0.70775 0.70646 0
    outer loop
      vertex -22.99 -34.988 0
      vertex -23.539 -35.538 0
      vertex -23.539 -35.538 7.068
    endloop
  endfacet
  facet normal -0.70775 0.70646 0
    outer loop
      vertex -22.99 -34.988 0
      vertex -23.539 -35.538 7.068
      vertex -22.99 -34.988 7.068
    endloop
  endfacet
  facet normal 0.96608 0.25826 0
    outer loop
      vertex -76.563 8.21 7.398
      vertex -76.563 8.21 0
      vertex -76.779 9.018 0
    endloop
  endfacet
  facet normal 0.96608 0.25826 0
    outer loop
      vertex -76.563 8.21 7.398
      vertex -76.779 9.018 0
      vertex -76.779 9.018 7.398
    endloop
  endfacet
  facet normal -0.70711 -0.70711 0
    outer loop
      vertex -23.59 -4.754 7.361
      vertex -23.59 -4.754 0
      vertex -23.06 -5.284 0
    endloop
  endfacet
  facet normal -0.25854 0.966 0
    outer loop
      vertex -23.539 -35.538 7.068
      vertex -23.539 -35.538 0
      vertex -24.29 -35.739 0
    endloop
  endfacet
  facet normal -0.25854 0.966 0
    outer loop
      vertex -23.539 -35.538 7.068
      vertex -24.29 -35.739 0
      vertex -24.29 -35.739 7.068
    endloop
  endfacet
  facet normal -0.96586 -0.25907 0
    outer loop
      vertex -73.545 9.018 7.398
      vertex -73.762 9.827 7.398
      vertex -73.545 9.018 0
    endloop
  endfacet
  facet normal -0.96586 -0.25907 0
    outer loop
      vertex -73.762 9.827 0
      vertex -73.545 9.018 0
      vertex -73.762 9.827 7.398
    endloop
  endfacet
  facet normal -0.25849 0.96601 0
    outer loop
      vertex -24.315 -7.457 7.361
      vertex -23.59 -7.263 7.361
      vertex -24.315 -7.457 0
    endloop
  endfacet
  facet normal -0.25849 0.96601 0
    outer loop
      vertex -23.59 -7.263 0
      vertex -24.315 -7.457 0
      vertex -23.59 -7.263 7.361
    endloop
  endfacet
  facet normal 0.25886 -0.96591 0
    outer loop
      vertex -24.29 -32.736 7.068
      vertex -25.04 -32.937 7.068
      vertex -24.29 -32.736 0
    endloop
  endfacet
  facet normal 0.96616 -0.25796 0
    outer loop
      vertex -76.779 9.018 7.398
      vertex -76.779 9.018 0
      vertex -76.563 9.827 0
    endloop
  endfacet
  facet normal -0.70711 0.70711 0
    outer loop
      vertex -23.59 -7.263 0
      vertex -23.59 -7.263 7.361
      vertex -23.06 -6.733 0
    endloop
  endfacet
  facet normal -0.70711 0.70711 0
    outer loop
      vertex -23.06 -6.733 7.361
      vertex -23.06 -6.733 0
      vertex -23.59 -7.263 7.361
    endloop
  endfacet
  facet normal -0.96591 0.25886 0
    outer loop
      vertex -22.789 -34.238 0
      vertex -22.99 -34.988 0
      vertex -22.789 -34.238 7.068
    endloop
  endfacet
  facet normal -0.70651 -0.7077 0
    outer loop
      vertex -74.354 10.418 0
      vertex -73.762 9.827 0
      vertex -73.762 9.827 7.398
    endloop
  endfacet
  facet normal -0.70651 -0.7077 0
    outer loop
      vertex -74.354 10.418 0
      vertex -73.762 9.827 7.398
      vertex -74.354 10.418 7.398
    endloop
  endfacet
  facet normal 0.15542 -0.98785 0
    outer loop
      vertex -62.473 -39.236 3.304
      vertex -62.937 -39.309 0
      vertex -62.473 -39.236 0
    endloop
  endfacet
  facet normal 0.25883 0.96592 0
    outer loop
      vertex -25.039 -7.263 0
      vertex -24.315 -7.457 7.361
      vertex -24.315 -7.457 0
    endloop
  endfacet
  facet normal -0.96591 0.25886 0
    outer loop
      vertex -22.99 -34.988 7.068
      vertex -22.789 -34.238 7.068
      vertex -22.99 -34.988 0
    endloop
  endfacet
  facet normal -0.15542 -0.98785 0
    outer loop
      vertex -62.009 -39.309 0
      vertex -62.009 -39.309 3.304
      vertex -62.473 -39.236 3.304
    endloop
  endfacet
  facet normal -0.15542 -0.98785 0
    outer loop
      vertex -62.009 -39.309 0
      vertex -62.473 -39.236 3.304
      vertex -62.473 -39.236 0
    endloop
  endfacet
  facet normal 0 -1 0
    outer loop
      vertex -21.636 -36.562 7.068
      vertex -27.498 -36.562 3.304
      vertex -21.636 -36.562 3.304
    endloop
  endfacet
  facet normal -1 0 0
    outer loop
      vertex -27.266 -2.861 7.361
      vertex -27.266 -2.861 3.304
      vertex -27.266 -8.802 7.361
    endloop
  endfacet
  facet normal -0.45402 -0.89099 0
    outer loop
      vertex -62.009 -39.309 3.304
      vertex -62.009 -39.309 0
      vertex -61.591 -39.522 3.304
    endloop
  endfacet
  facet normal -0.45402 -0.89099 0
    outer loop
      vertex -61.591 -39.522 0
      vertex -61.591 -39.522 3.304
      vertex -62.009 -39.309 0
    endloop
  endfacet
  facet normal -0.25937 -0.96578 0
    outer loop
      vertex -75.162 10.635 0
      vertex -74.354 10.418 0
      vertex -74.354 10.418 7.398
    endloop
  endfacet
  facet normal -1 0 0
    outer loop
      vertex -27.266 -8.802 7.361
      vertex -27.266 -2.861 3.304
      vertex -27.266 -8.802 3.304
    endloop
  endfacet
  facet normal -1 0 0
    outer loop
      vertex -27.266 -32.768 0
      vertex -27.266 -8.802 3.304
      vertex -27.266 -5.35074 0
    endloop
  endfacet
  facet normal -1 0 0
    outer loop
      vertex -78.232 12.525 7.398
      vertex -78.232 12.525 3.304
      vertex -78.232 6.827 7.398
    endloop
  endfacet
  facet normal -1 0 0
    outer loop
      vertex -78.232 6.827 3.304
      vertex -78.232 6.827 7.398
      vertex -78.232 12.525 3.304
    endloop
  endfacet
  facet normal -0.70817 -0.70604 0
    outer loop
      vertex -61.591 -39.522 3.304
      vertex -61.591 -39.522 0
      vertex -61.259 -39.855 0
    endloop
  endfacet
  facet normal -0.70817 -0.70604 0
    outer loop
      vertex -61.591 -39.522 3.304
      vertex -61.259 -39.855 0
      vertex -61.259 -39.855 3.304
    endloop
  endfacet
  facet normal 0.96592 0.25883 0
    outer loop
      vertex -25.763 -6.009 7.361
      vertex -25.569 -6.733 7.361
      vertex -25.569 -6.733 0
    endloop
  endfacet
  facet normal 0.96592 0.25883 0
    outer loop
      vertex -25.763 -6.009 7.361
      vertex -25.569 -6.733 0
      vertex -25.763 -6.009 0
    endloop
  endfacet
  facet normal 0 -1 0
    outer loop
      vertex -78.232 6.827 3.304
      vertex -72.335 6.827 3.304
      vertex -75.18 6.827 7.398
    endloop
  endfacet
  facet normal -0.89143 -0.45316 0
    outer loop
      vertex -61.046 -40.274 0
      vertex -61.046 -40.274 3.304
      vertex -61.259 -39.855 0
    endloop
  endfacet
  facet normal -0.89143 -0.45316 0
    outer loop
      vertex -61.259 -39.855 3.304
      vertex -61.259 -39.855 0
      vertex -61.046 -40.274 3.304
    endloop
  endfacet
  facet normal 0 -1 0
    outer loop
      vertex -78.232 6.827 3.304
      vertex -75.18 6.827 7.398
      vertex -78.232 6.827 7.398
    endloop
  endfacet
  facet normal -0.25854 -0.966 0
    outer loop
      vertex -24.29 -32.736 0
      vertex -23.539 -32.937 0
      vertex -23.539 -32.937 7.068
    endloop
  endfacet
  facet normal 0.96601 -0.25849 0
    outer loop
      vertex -25.569 -5.284 7.361
      vertex -25.763 -6.009 7.361
      vertex -25.763 -6.009 0
    endloop
  endfacet
  facet normal 0.96601 -0.25849 0
    outer loop
      vertex -25.569 -5.284 7.361
      vertex -25.763 -6.009 0
      vertex -25.569 -5.284 0
    endloop
  endfacet
  facet normal -0.70711 -0.70711 0
    outer loop
      vertex -23.539 -32.937 7.068
      vertex -22.99 -33.486 0
      vertex -22.99 -33.486 7.068
    endloop
  endfacet
  facet normal -0.98785 -0.15542 0
    outer loop
      vertex -61.046 -40.274 3.304
      vertex -61.046 -40.274 0
      vertex -60.973 -40.738 0
    endloop
  endfacet
  facet normal -0.98785 -0.15542 0
    outer loop
      vertex -61.046 -40.274 3.304
      vertex -60.973 -40.738 0
      vertex -60.973 -40.738 3.304
    endloop
  endfacet
  facet normal 0.70711 -0.70711 0
    outer loop
      vertex -25.569 -5.284 0
      vertex -25.039 -4.754 7.361
      vertex -25.569 -5.284 7.361
    endloop
  endfacet
  facet normal 0.70711 -0.70711 0
    outer loop
      vertex -25.039 -4.754 0
      vertex -25.039 -4.754 7.361
      vertex -25.569 -5.284 0
    endloop
  endfacet
  facet normal -0.70711 -0.70711 0
    outer loop
      vertex -22.99 -33.486 0
      vertex -23.539 -32.937 7.068
      vertex -23.539 -32.937 0
    endloop
  endfacet
  facet normal -0.98785 0.15542 0
    outer loop
      vertex -61.046 -41.202 0
      vertex -60.973 -40.738 3.304
      vertex -60.973 -40.738 0
    endloop
  endfacet
  facet normal 0 0 1
    outer loop
      vertex -27.266 -8.802 7.361
      vertex -25.763 -6.009 7.361
      vertex -27.266 -2.861 7.361
    endloop
  endfacet
  facet normal 0 0 1
    outer loop
      vertex -25.039 -4.754 7.361
      vertex -27.266 -2.861 7.361
      vertex -25.569 -5.284 7.361
    endloop
  endfacet
  facet normal -0.96609 -0.25822 0
    outer loop
      vertex -22.789 -34.238 0
      vertex -22.789 -34.238 7.068
      vertex -22.99 -33.486 0
    endloop
  endfacet
  facet normal -0.96609 -0.25822 0
    outer loop
      vertex -22.99 -33.486 7.068
      vertex -22.99 -33.486 0
      vertex -22.789 -34.238 7.068
    endloop
  endfacet
  facet normal 0.70711 0.70711 0
    outer loop
      vertex -25.569 -6.733 0
      vertex -25.569 -6.733 7.361
      vertex -25.039 -7.263 7.361
    endloop
  endfacet
  facet normal 0.70711 0.70711 0
    outer loop
      vertex -25.569 -6.733 0
      vertex -25.039 -7.263 7.361
      vertex -25.039 -7.263 0
    endloop
  endfacet
  facet normal 0.15542 0.98785 0
    outer loop
      vertex -62.473 -42.24 0
      vertex -62.937 -42.167 0
      vertex -62.937 -42.167 3.304
    endloop
  endfacet
  facet normal 0.15542 0.98785 0
    outer loop
      vertex -62.473 -42.24 0
      vertex -62.937 -42.167 3.304
      vertex -62.473 -42.24 3.304
    endloop
  endfacet
  facet normal 0 0 1
    outer loop
      vertex -80.963 6.827 3.304
      vertex -78.232 6.827 3.304
      vertex -78.232 12.525 3.304
    endloop
  endfacet
  facet normal 0 0 1
    outer loop
      vertex -25.569 -6.733 7.361
      vertex -25.763 -6.009 7.361
      vertex -27.266 -8.802 7.361
    endloop
  endfacet
  facet normal 0 0 1
    outer loop
      vertex -25.569 -5.284 7.361
      vertex -27.266 -2.861 7.361
      vertex -25.763 -6.009 7.361
    endloop
  endfacet
  facet normal 0.45402 0.89099 0
    outer loop
      vertex -62.937 -42.167 3.304
      vertex -62.937 -42.167 0
      vertex -63.355 -41.954 3.304
    endloop
  endfacet
  facet normal 0 0 1
    outer loop
      vertex -21.636 -31.476 3.304
      vertex -21.636 -36.562 3.304
      vertex -18 -45.018 3.304
    endloop
  endfacet
  facet normal 0.25883 0.96592 0
    outer loop
      vertex -24.315 -7.457 7.361
      vertex -25.039 -7.263 0
      vertex -25.039 -7.263 7.361
    endloop
  endfacet
  facet normal -0.70711 0.70711 0
    outer loop
      vertex -74.354 7.618 0
      vertex -74.354 7.618 7.398
      vertex -73.762 8.21 7.398
    endloop
  endfacet
  facet normal 1 0 0
    outer loop
      vertex -21.636 -36.562 7.068
      vertex -21.636 -36.562 3.304
      vertex -21.636 -31.476 3.304
    endloop
  endfacet
  facet normal -0.25937 0.96578 0
    outer loop
      vertex -74.354 7.618 7.398
      vertex -74.354 7.618 0
      vertex -75.162 7.401 0
    endloop
  endfacet
  facet normal -0.25937 0.96578 0
    outer loop
      vertex -74.354 7.618 7.398
      vertex -75.162 7.401 0
      vertex -75.162 7.401 7.398
    endloop
  endfacet
  facet normal 0 0 1
    outer loop
      vertex -24.315 -7.457 7.361
      vertex -25.039 -7.263 7.361
      vertex -27.266 -8.802 7.361
    endloop
  endfacet
  facet normal 0 0 1
    outer loop
      vertex -25.039 -7.263 7.361
      vertex -25.569 -6.733 7.361
      vertex -27.266 -8.802 7.361
    endloop
  endfacet
  facet normal 0.89143 0.45316 0
    outer loop
      vertex -63.9 -41.202 0
      vertex -63.9 -41.202 3.304
      vertex -63.687 -41.621 3.304
    endloop
  endfacet
  facet normal 0.25907 0.96586 0
    outer loop
      vertex -75.971 7.618 0
      vertex -75.971 7.618 7.398
      vertex -75.162 7.401 0
    endloop
  endfacet
  facet normal 0.25907 0.96586 0
    outer loop
      vertex -75.162 7.401 7.398
      vertex -75.162 7.401 0
      vertex -75.971 7.618 7.398
    endloop
  endfacet
  facet normal 0.25883 -0.96592 0
    outer loop
      vertex -25.039 -4.754 7.361
      vertex -25.039 -4.754 0
      vertex -24.315 -4.56 7.361
    endloop
  endfacet
  facet normal 0.98752 0.15749 0
    outer loop
      vertex -63.974 -40.738 0
      vertex -63.974 -40.738 3.304
      vertex -63.9 -41.202 0
    endloop
  endfacet
  facet normal 0 0 1
    outer loop
      vertex -21.636 -36.562 3.304
      vertex -27.498 -36.562 3.304
      vertex -18 -45.018 3.304
    endloop
  endfacet
  facet normal 0 0 1
    outer loop
      vertex -32.768 -36.518 3.304
      vertex -18 -45.018 3.304
      vertex -27.498 -36.562 3.304
    endloop
  endfacet
  facet normal 0.25883 -0.96592 0
    outer loop
      vertex -24.315 -4.56 0
      vertex -24.315 -4.56 7.361
      vertex -25.039 -4.754 0
    endloop
  endfacet
  facet normal 0.70711 0.70711 0
    outer loop
      vertex -76.563 8.21 7.398
      vertex -75.971 7.618 7.398
      vertex -76.563 8.21 0
    endloop
  endfacet
  facet normal 0.70711 0.70711 0
    outer loop
      vertex -75.971 7.618 0
      vertex -76.563 8.21 0
      vertex -75.971 7.618 7.398
    endloop
  endfacet
  facet normal -1 0 0
    outer loop
      vertex -27.266 -5.35074 0
      vertex -27.266 -8.802 3.304
      vertex -27.266 -2.861 3.304
    endloop
  endfacet
  facet normal 0 -1 0
    outer loop
      vertex -80.963 6.827 3.304
      vertex -80.963 6.827 0
      vertex -78.232 6.827 3.304
    endloop
  endfacet
  facet normal 0 -1 0
    outer loop
      vertex -27.266 6.827 0
      vertex -72.335 6.827 3.304
      vertex -80.963 6.827 0
    endloop
  endfacet
  facet normal -1 0 0
    outer loop
      vertex -27.266 6.827 3.304
      vertex -27.266 6.827 0
      vertex -27.266 -2.861 3.304
    endloop
  endfacet
  facet normal -0.89143 0.45316 0
    outer loop
      vertex -61.046 -41.202 3.304
      vertex -61.259 -41.621 0
      vertex -61.259 -41.621 3.304
    endloop
  endfacet
  facet normal 0 0 -1
    outer loop
      vertex -46.313 -41.621 0
      vertex -46.1 -41.202 0
      vertex -18 -45.018 0
    endloop
  endfacet
  facet normal 0 0 -1
    outer loop
      vertex -46.645 -41.954 0
      vertex -18 -45.018 0
      vertex -47.063 -42.167 0
    endloop
  endfacet
  facet normal -0.70817 0.70604 0
    outer loop
      vertex -61.259 -41.621 3.304
      vertex -61.259 -41.621 0
      vertex -61.591 -41.954 0
    endloop
  endfacet
  facet normal -0.70817 0.70604 0
    outer loop
      vertex -61.259 -41.621 3.304
      vertex -61.591 -41.954 0
      vertex -61.591 -41.954 3.304
    endloop
  endfacet
  facet normal 0 0 1
    outer loop
      vertex -25.59 -34.988 7.068
      vertex -27.266 -36.518 7.068
      vertex -25.04 -35.538 7.068
    endloop
  endfacet
  facet normal 0 0 1
    outer loop
      vertex -92 15 3.304
      vertex -88.117 6.827 3.304
      vertex -84.531 6.827 3.304
    endloop
  endfacet
  facet normal 0 0 1
    outer loop
      vertex -80.963 6.827 3.304
      vertex -78.232 12.525 3.304
      vertex -84.531 6.827 3.304
    endloop
  endfacet
  facet normal 0 0 1
    outer loop
      vertex -92 15 3.304
      vertex -84.531 6.827 3.304
      vertex -78.232 12.525 3.304
    endloop
  endfacet
  facet normal -0.45402 0.89099 0
    outer loop
      vertex -61.591 -41.954 3.304
      vertex -61.591 -41.954 0
      vertex -62.009 -42.167 3.304
    endloop
  endfacet
  facet normal 0 0 1
    outer loop
      vertex -25.791 -34.238 7.068
      vertex -27.266 -36.518 7.068
      vertex -25.59 -34.988 7.068
    endloop
  endfacet
  facet normal 0 0 1
    outer loop
      vertex -21.636 -36.562 7.068
      vertex -24.29 -35.739 7.068
      vertex -27.266 -36.518 7.068
    endloop
  endfacet
  facet normal -0.15542 0.98785 0
    outer loop
      vertex -62.009 -42.167 3.304
      vertex -62.473 -42.24 0
      vertex -62.473 -42.24 3.304
    endloop
  endfacet
  facet normal 0 0 -1
    outer loop
      vertex -61.046 -40.274 0
      vertex -48.741 -39.855 0
      vertex -48.954 -40.274 0
    endloop
  endfacet
  facet normal 0 0 -1
    outer loop
      vertex -61.046 -40.274 0
      vertex -48.954 -40.274 0
      vertex -49.027 -40.738 0
    endloop
  endfacet
  facet normal 0 -1 0
    outer loop
      vertex -88.117 6.827 3.304
      vertex -88.117 6.827 0
      vertex -84.531 6.827 0
    endloop
  endfacet
  facet normal 0 -1 0
    outer loop
      vertex -88.117 6.827 3.304
      vertex -84.531 6.827 0
      vertex -84.531 6.827 3.304
    endloop
  endfacet
  facet normal 0 0 1
    outer loop
      vertex -25.59 -33.486 7.068
      vertex -27.266 -31.476 7.068
      vertex -25.791 -34.238 7.068
    endloop
  endfacet
  facet normal 0 0 1
    outer loop
      vertex -25.04 -32.937 7.068
      vertex -27.266 -31.476 7.068
      vertex -25.59 -33.486 7.068
    endloop
  endfacet
  facet normal 0 0 1
    outer loop
      vertex -27.266 -31.476 7.068
      vertex -27.266 -36.518 7.068
      vertex -25.791 -34.238 7.068
    endloop
  endfacet
  facet normal 0 0 1
    outer loop
      vertex -88.117 6.827 3.304
      vertex -92 15 3.304
      vertex -88.117 -36.518 3.304
    endloop
  endfacet
  facet normal 0 0 1
    outer loop
      vertex -92 -45.018 3.304
      vertex -88.117 -36.518 3.304
      vertex -92 15 3.304
    endloop
  endfacet
  facet normal 0.98752 0.15749 0
    outer loop
      vertex -63.9 -41.202 3.304
      vertex -63.9 -41.202 0
      vertex -63.974 -40.738 3.304
    endloop
  endfacet
  facet normal 1 0 0
    outer loop
      vertex -88.117 -36.518 3.304
      vertex -88.117 -36.518 0
      vertex -88.117 6.827 3.304
    endloop
  endfacet
  facet normal 0 0 -1
    outer loop
      vertex -47.991 -39.309 0
      vertex -48.409 -39.522 0
      vertex -46.026 -36.518 0
    endloop
  endfacet
  facet normal 0 0 -1
    outer loop
      vertex -61.046 -40.274 0
      vertex -61.259 -39.855 0
      vertex -48.741 -39.855 0
    endloop
  endfacet
  facet normal 0.25886 0.96591 0
    outer loop
      vertex -25.04 -35.538 0
      vertex -25.04 -35.538 7.068
      vertex -24.29 -35.739 7.068
    endloop
  endfacet
  facet normal -1 0 0
    outer loop
      vertex -84.531 6.827 3.304
      vertex -84.531 6.827 0
      vertex -84.531 -36.518 3.304
    endloop
  endfacet
  facet normal -1 0 0
    outer loop
      vertex -84.531 -36.518 0
      vertex -84.531 -36.518 3.304
      vertex -84.531 6.827 0
    endloop
  endfacet
  facet normal 0 0 -1
    outer loop
      vertex -48.409 -39.522 0
      vertex -48.741 -39.855 0
      vertex -61.259 -39.855 0
    endloop
  endfacet
  facet normal 0.98752 -0.15749 0
    outer loop
      vertex -63.9 -40.274 0
      vertex -63.9 -40.274 3.304
      vertex -63.974 -40.738 3.304
    endloop
  endfacet
  facet normal 0.98752 -0.15749 0
    outer loop
      vertex -63.9 -40.274 0
      vertex -63.974 -40.738 3.304
      vertex -63.974 -40.738 0
    endloop
  endfacet
  facet normal 0.25886 -0.96591 0
    outer loop
      vertex -25.04 -32.937 0
      vertex -24.29 -32.736 0
      vertex -25.04 -32.937 7.068
    endloop
  endfacet
  facet normal 0 0 1
    outer loop
      vertex -80.963 6.827 3.304
      vertex -84.531 6.827 3.304
      vertex -84.531 -36.518 3.304
    endloop
  endfacet
  facet normal 0 0 1
    outer loop
      vertex -80.963 -36.518 3.304
      vertex -80.963 6.827 3.304
      vertex -84.531 -36.518 3.304
    endloop
  endfacet
  facet normal 1 0 0
    outer loop
      vertex -80.963 6.827 0
      vertex -80.963 6.827 3.304
      vertex -80.963 -36.518 0
    endloop
  endfacet
  facet normal 1 0 0
    outer loop
      vertex -80.963 -36.518 3.304
      vertex -80.963 -36.518 0
      vertex -80.963 6.827 3.304
    endloop
  endfacet
  facet normal 0.89143 -0.45316 0
    outer loop
      vertex -63.9 -40.274 3.304
      vertex -63.9 -40.274 0
      vertex -63.687 -39.855 3.304
    endloop
  endfacet
  facet normal 0.89143 -0.45316 0
    outer loop
      vertex -63.687 -39.855 0
      vertex -63.687 -39.855 3.304
      vertex -63.9 -40.274 0
    endloop
  endfacet
  facet normal 0.70711 0.70711 0
    outer loop
      vertex -25.59 -34.988 0
      vertex -25.59 -34.988 7.068
      vertex -25.04 -35.538 0
    endloop
  endfacet
  facet normal 0.70711 0.70711 0
    outer loop
      vertex -25.04 -35.538 7.068
      vertex -25.04 -35.538 0
      vertex -25.59 -34.988 7.068
    endloop
  endfacet
  facet normal 0 0 -1
    outer loop
      vertex -46.645 -39.522 0
      vertex -47.063 -39.309 0
      vertex -46.026 -36.518 0
    endloop
  endfacet
  facet normal 0 0 1
    outer loop
      vertex -74.079 -41.48 3.304
      vertex -63.974 -40.738 3.304
      vertex -74.079 -36.518 3.304
    endloop
  endfacet
  facet normal 0 0 1
    outer loop
      vertex -63.9 -40.274 3.304
      vertex -74.079 -36.518 3.304
      vertex -63.974 -40.738 3.304
    endloop
  endfacet
  facet normal 0 0 -1
    outer loop
      vertex -46.313 -39.855 0
      vertex -46.645 -39.522 0
      vertex -46.026 -36.518 0
    endloop
  endfacet
  facet normal 0.70646 -0.70775 0
    outer loop
      vertex -25.04 -32.937 0
      vertex -25.04 -32.937 7.068
      vertex -25.59 -33.486 7.068
    endloop
  endfacet
  facet normal 0.70646 -0.70775 0
    outer loop
      vertex -25.04 -32.937 0
      vertex -25.59 -33.486 7.068
      vertex -25.59 -33.486 0
    endloop
  endfacet
  facet normal 0.70817 -0.70604 0
    outer loop
      vertex -63.355 -39.522 0
      vertex -63.355 -39.522 3.304
      vertex -63.687 -39.855 3.304
    endloop
  endfacet
  facet normal 0.70817 -0.70604 0
    outer loop
      vertex -63.355 -39.522 0
      vertex -63.687 -39.855 3.304
      vertex -63.687 -39.855 0
    endloop
  endfacet
  facet normal 0 1 0
    outer loop
      vertex -80.963 -36.518 0
      vertex -74.079 -36.518 3.304
      vertex -63.974 -36.518 0
    endloop
  endfacet
  facet normal 0.96591 0.25886 0
    outer loop
      vertex -25.59 -34.988 7.068
      vertex -25.59 -34.988 0
      vertex -25.791 -34.238 7.068
    endloop
  endfacet
  facet normal 1 0 0
    outer loop
      vertex -74.079 -36.518 3.304
      vertex -74.079 -36.518 7.097
      vertex -74.079 -41.48 3.304
    endloop
  endfacet
  facet normal 0.45402 -0.89099 0
    outer loop
      vertex -63.355 -39.522 3.304
      vertex -63.355 -39.522 0
      vertex -62.937 -39.309 3.304
    endloop
  endfacet
  facet normal 0.45402 -0.89099 0
    outer loop
      vertex -62.937 -39.309 0
      vertex -62.937 -39.309 3.304
      vertex -63.355 -39.522 0
    endloop
  endfacet
  facet normal 0 0 1
    outer loop
      vertex -78.615 -36.518 7.097
      vertex -76.214 -37.818 7.097
      vertex -74.079 -36.518 7.097
    endloop
  endfacet
  facet normal 0.96609 -0.25822 0
    outer loop
      vertex -25.59 -33.486 0
      vertex -25.59 -33.486 7.068
      vertex -25.791 -34.238 7.068
    endloop
  endfacet
  facet normal 0 1 0
    outer loop
      vertex -74.079 -36.518 3.304
      vertex -78.615 -36.518 3.304
      vertex -78.615 -36.518 7.097
    endloop
  endfacet
  facet normal 0 1 0
    outer loop
      vertex -74.079 -36.518 3.304
      vertex -78.615 -36.518 7.097
      vertex -74.079 -36.518 7.097
    endloop
  endfacet
  facet normal 0.15542 -0.98785 0
    outer loop
      vertex -62.937 -39.309 3.304
      vertex -62.937 -39.309 0
      vertex -62.473 -39.236 3.304
    endloop
  endfacet
  facet normal 0 0 -1
    outer loop
      vertex -74.812 -39.22 0
      vertex -63.974 -40.738 0
      vertex -75 -39.921 0
    endloop
  endfacet
  facet normal 0 0 -1
    outer loop
      vertex -92 -45.018 0
      vertex -76.214 -40.623 0
      vertex -63.974 -45.018 0
    endloop
  endfacet
  facet normal 0 0 -1
    outer loop
      vertex -75 -39.921 0
      vertex -63.974 -45.018 0
      vertex -75.513 -40.435 0
    endloop
  endfacet
  facet normal 0 0 1
    outer loop
      vertex -48.741 -41.621 3.304
      vertex -48.954 -41.202 3.304
      vertex -61.046 -41.202 3.304
    endloop
  endfacet
  facet normal 0 0 1
    outer loop
      vertex -49.027 -45.018 3.304
      vertex -48.741 -41.621 3.304
      vertex -61.046 -41.202 3.304
    endloop
  endfacet
  facet normal 0 0 1
    outer loop
      vertex -62.009 -42.167 3.304
      vertex -49.027 -45.018 3.304
      vertex -61.591 -41.954 3.304
    endloop
  endfacet
  facet normal 0 0 1
    outer loop
      vertex -61.259 -41.621 3.304
      vertex -61.591 -41.954 3.304
      vertex -49.027 -45.018 3.304
    endloop
  endfacet
  facet normal 0 0 1
    outer loop
      vertex -48.954 -41.202 3.304
      vertex -49.027 -40.738 3.304
      vertex -60.973 -40.738 3.304
    endloop
  endfacet
  facet normal 0 0 1
    outer loop
      vertex -61.046 -40.274 3.304
      vertex -60.973 -40.738 3.304
      vertex -49.027 -40.738 3.304
    endloop
  endfacet
  facet normal 0 0 1
    outer loop
      vertex -61.259 -39.855 3.304
      vertex -61.046 -40.274 3.304
      vertex -48.954 -40.274 3.304
    endloop
  endfacet
  facet normal 0 0 1
    outer loop
      vertex -60.973 -36.518 3.304
      vertex -61.259 -39.855 3.304
      vertex -48.954 -40.274 3.304
    endloop
  endfacet
  facet normal 0 0 1
    outer loop
      vertex -60.973 -36.518 3.304
      vertex -48.954 -40.274 3.304
      vertex -48.741 -39.855 3.304
    endloop
  endfacet
  facet normal 0 0 1
    outer loop
      vertex -47.991 -39.309 3.304
      vertex -60.973 -36.518 3.304
      vertex -48.409 -39.522 3.304
    endloop
  endfacet
  facet normal 0 0 1
    outer loop
      vertex -48.741 -39.855 3.304
      vertex -48.409 -39.522 3.304
      vertex -60.973 -36.518 3.304
    endloop
  endfacet
  facet normal 0 0 -1
    outer loop
      vertex -63.974 -36.518 0
      vertex -75 -38.519 0
      vertex -75.513 -38.006 0
    endloop
  endfacet
  facet normal 0 0 -1
    outer loop
      vertex -63.974 -40.738 0
      vertex -63.9 -41.202 0
      vertex -75 -39.921 0
    endloop
  endfacet
  facet normal 0 0 -1
    outer loop
      vertex -75 -38.519 0
      vertex -63.974 -36.518 0
      vertex -74.812 -39.22 0
    endloop
  endfacet
  facet normal 0 0 -1
    outer loop
      vertex -77.429 -39.921 0
      vertex -92 -45.018 0
      vertex -77.617 -39.22 0
    endloop
  endfacet
  facet normal 0 0 -1
    outer loop
      vertex -76.916 -40.435 0
      vertex -92 -45.018 0
      vertex -77.429 -39.921 0
    endloop
  endfacet
  facet normal 0 0 1
    outer loop
      vertex -49.027 -45.018 3.304
      vertex -62.009 -42.167 3.304
      vertex -62.473 -42.24 3.304
    endloop
  endfacet
  facet normal 0 0 1
    outer loop
      vertex -62.937 -42.167 3.304
      vertex -92 -45.018 3.304
      vertex -62.473 -42.24 3.304
    endloop
  endfacet
  facet normal 0 0 1
    outer loop
      vertex -63.355 -41.954 3.304
      vertex -74.079 -41.48 3.304
      vertex -62.937 -42.167 3.304
    endloop
  endfacet
  facet normal 0 0 1
    outer loop
      vertex -49.027 -45.018 3.304
      vertex -62.473 -42.24 3.304
      vertex -92 -45.018 3.304
    endloop
  endfacet
  facet normal 0 0 1
    outer loop
      vertex -63.687 -41.621 3.304
      vertex -74.079 -41.48 3.304
      vertex -63.355 -41.954 3.304
    endloop
  endfacet
  facet normal 0 0 1
    outer loop
      vertex -63.355 -39.522 3.304
      vertex -74.079 -36.518 3.304
      vertex -63.687 -39.855 3.304
    endloop
  endfacet
  facet normal 0 0 1
    outer loop
      vertex -63.9 -40.274 3.304
      vertex -63.687 -39.855 3.304
      vertex -74.079 -36.518 3.304
    endloop
  endfacet
  facet normal 0 0 -1
    outer loop
      vertex -76.916 -40.435 0
      vertex -76.214 -40.623 0
      vertex -92 -45.018 0
    endloop
  endfacet
  facet normal 0 0 -1
    outer loop
      vertex -80.963 -36.518 0
      vertex -77.617 -39.22 0
      vertex -92 -45.018 0
    endloop
  endfacet
  facet normal 0 0 -1
    outer loop
      vertex -75.513 -40.435 0
      vertex -63.974 -45.018 0
      vertex -76.214 -40.623 0
    endloop
  endfacet
  facet normal 0 0 -1
    outer loop
      vertex -63.9 -41.202 0
      vertex -63.687 -41.621 0
      vertex -75 -39.921 0
    endloop
  endfacet
  facet normal 0 1 0
    outer loop
      vertex -60.973 -36.518 3.304
      vertex -32.768 -36.518 3.304
      vertex -46.026 -36.518 0
    endloop
  endfacet
  facet normal 0 1 0
    outer loop
      vertex -27.266 -36.518 0
      vertex -46.026 -36.518 0
      vertex -32.768 -36.518 3.304
    endloop
  endfacet
  facet normal 0 0 -1
    outer loop
      vertex -92 -45.018 0
      vertex -88.117 -36.518 0
      vertex -84.531 -36.518 0
    endloop
  endfacet
  facet normal 0 1 0
    outer loop
      vertex -60.973 -36.518 3.304
      vertex -63.974 -36.518 0
      vertex -74.079 -36.518 3.304
    endloop
  endfacet
  facet normal 0 0 -1
    outer loop
      vertex -92 -45.018 0
      vertex -92 15 0
      vertex -88.117 -36.518 0
    endloop
  endfacet
  facet normal 0 1 0
    outer loop
      vertex -63.974 -36.518 0
      vertex -60.973 -36.518 3.304
      vertex -46.026 -36.518 0
    endloop
  endfacet
  facet normal 0 0 -1
    outer loop
      vertex -84.531 -36.518 0
      vertex -80.963 6.827 0
      vertex -80.963 -36.518 0
    endloop
  endfacet
  facet normal 0 0 -1
    outer loop
      vertex -92 -45.018 0
      vertex -84.531 -36.518 0
      vertex -80.963 -36.518 0
    endloop
  endfacet
  facet normal 0.15542 0.98785 0
    outer loop
      vertex -47.527 -42.24 0
      vertex -47.991 -42.167 0
      vertex -47.991 -42.167 3.304
    endloop
  endfacet
  facet normal 1 0 0
    outer loop
      vertex -18 15 0
      vertex -18 15 3.304
      vertex -18 -16.384 0
    endloop
  endfacet
  facet normal 1 0 0
    outer loop
      vertex -18 -45.018 3.304
      vertex -18 -16.384 0
      vertex -18 15 3.304
    endloop
  endfacet
  facet normal 0.45402 0.89099 0
    outer loop
      vertex -47.991 -42.167 3.304
      vertex -47.991 -42.167 0
      vertex -48.409 -41.954 0
    endloop
  endfacet
  facet normal 1 0 0
    outer loop
      vertex -18 -45.018 0
      vertex -18 -16.384 0
      vertex -18 -45.018 3.304
    endloop
  endfacet
endsolid stl_item0
