solid stl_item0
  facet normal 0 -1 0
    outer loop
      vertex -54.033 -16 100.3
      vertex 54.046 -16 100.3
      vertex 16.384 -16 113.3
    endloop
  endfacet
  facet normal 0 -1 0
    outer loop
      vertex 54.046 -16 113.3
      vertex 16.384 -16 113.3
      vertex 54.046 -16 100.3
    endloop
  endfacet
  facet normal 0 -1 0
    outer loop
      vertex -54.033 -16 113.3
      vertex -54.033 -16 100.3
      vertex 16.384 -16 113.3
    endloop
  endfacet
  facet normal 0 1 0
    outer loop
      vertex 54.046 16 113.3
      vertex 54.046 16 100.3
      vertex 16.384 16 113.3
    endloop
  endfacet
  facet normal 0 1 0
    outer loop
      vertex -54.033 16 113.3
      vertex 16.384 16 113.3
      vertex -54.033 16 100.3
    endloop
  endfacet
  facet normal 0 1 0
    outer loop
      vertex 54.046 16 100.3
      vertex -54.033 16 100.3
      vertex 16.384 16 113.3
    endloop
  endfacet
  facet normal 0.94616 0.32369 0
    outer loop
      vertex 32.324 -5.894 110.21753
      vertex 32.142 -5.362 113.3
      vertex 32.324 -5.894 113.3
    endloop
  endfacet
  facet normal 0.90948 -0.41566 -0.00875
    outer loop
      vertex 32.406 -3.986 113.3
      vertex 32.172 -4.498 113.3
      vertex 32.324 -4.117 110.21753
    endloop
  endfacet
  facet normal 0.77808 -0.62811 0.00803
    outer loop
      vertex 32.324 -4.117 110.21753
      vertex 32.695 -3.628 113.3
      vertex 32.406 -3.986 113.3
    endloop
  endfacet
  facet normal 0.99695 0.07802 0.00187
    outer loop
      vertex 32.142 -5.362 113.3
      vertex 32.172 -5.513 100.3
      vertex 32.106 -4.902 113.3
    endloop
  endfacet
  facet normal 0.98692 -0.16123 0
    outer loop
      vertex 32.106 -4.902 113.3
      vertex 32.106 -4.902 100.3
      vertex 32.172 -4.498 113.3
    endloop
  endfacet
  facet normal 0.94336 -0.3317 0.0074
    outer loop
      vertex 32.106 -4.902 100.3
      vertex 32.324 -4.117 110.21753
      vertex 32.172 -4.498 113.3
    endloop
  endfacet
  facet normal 0.80152 -0.59797 -0.00215
    outer loop
      vertex 32.324 -4.117 110.21753
      vertex 32.372 -4.026 100.3
      vertex 32.695 -3.628 113.3
    endloop
  endfacet
  facet normal 0.77647 -0.63015 0
    outer loop
      vertex 32.372 -4.026 100.3
      vertex 32.695 -3.628 100.3
      vertex 32.695 -3.628 113.3
    endloop
  endfacet
  facet normal 0 0 -1
    outer loop
      vertex 32.372 -4.026 100.3
      vertex 24.576 0 100.3
      vertex 32.695 -3.628 100.3
    endloop
  endfacet
  facet normal 0 0 -1
    outer loop
      vertex 32.372 -4.026 100.3
      vertex 32.106 -4.902 100.3
      vertex 24.576 0 100.3
    endloop
  endfacet
  facet normal 0.92075 0.39015 -0.00323
    outer loop
      vertex 32.142 -5.362 113.3
      vertex 32.372 -5.985 100.3
      vertex 32.172 -5.513 100.3
    endloop
  endfacet
  facet normal 0.81851 0.57449 -0.00176
    outer loop
      vertex 32.324 -5.894 110.21753
      vertex 32.554 -6.233 105.25876
      vertex 32.372 -5.985 100.3
    endloop
  endfacet
  facet normal 0.94915 0.31483 0.00229
    outer loop
      vertex 32.324 -5.894 110.21753
      vertex 32.372 -5.985 100.3
      vertex 32.142 -5.362 113.3
    endloop
  endfacet
  facet normal 0.99422 0.10739 0
    outer loop
      vertex 32.106 -4.902 113.3
      vertex 32.172 -5.513 100.3
      vertex 32.106 -4.902 100.3
    endloop
  endfacet
  facet normal 0.95686 -0.29055 0.00263
    outer loop
      vertex 32.372 -4.026 100.3
      vertex 32.324 -4.117 110.21753
      vertex 32.106 -4.902 100.3
    endloop
  endfacet
  facet normal 0 0 -1
    outer loop
      vertex 32.106 -4.902 100.3
      vertex 32.172 -5.513 100.3
      vertex 24.576 0 100.3
    endloop
  endfacet
  facet normal -0.77808 -0.62811 0.00803
    outer loop
      vertex -32.406 -3.986 113.3
      vertex -32.695 -3.628 113.3
      vertex -32.324 -4.117 110.21753
    endloop
  endfacet
  facet normal -0.90948 -0.41566 -0.00875
    outer loop
      vertex -32.324 -4.117 110.21753
      vertex -32.172 -4.498 113.3
      vertex -32.406 -3.986 113.3
    endloop
  endfacet
  facet normal -0.99345 -0.11374 0.01062
    outer loop
      vertex -32.108 -5.057 113.3
      vertex -32.172 -4.498 113.3
      vertex -32.124 -5.132 110.21753
    endloop
  endfacet
  facet normal -0.98682 0.1618 0.00159
    outer loop
      vertex -32.199 -5.612 113.3
      vertex -32.108 -5.057 113.3
      vertex -32.124 -5.132 110.21753
    endloop
  endfacet
  facet normal -0.91284 0.40463 0.05468
    outer loop
      vertex -32.124 -5.132 110.21753
      vertex -32.324 -5.894 113.3
      vertex -32.199 -5.612 113.3
    endloop
  endfacet
  facet normal -0.96724 0.25387 0
    outer loop
      vertex -32.124 -5.132 110.21753
      vertex -32.324 -5.894 110.21753
      vertex -32.324 -5.894 113.3
    endloop
  endfacet
  facet normal -0.81518 0.57921 0
    outer loop
      vertex -32.324 -5.894 113.3
      vertex -32.324 -5.894 110.21753
      vertex -32.621 -6.312 113.3
    endloop
  endfacet
  facet normal -0.81024 0.5861 0.00189
    outer loop
      vertex -32.695 -6.383 100.3
      vertex -32.621 -6.312 113.3
      vertex -32.324 -5.894 110.21753
    endloop
  endfacet
  facet normal -0.78543 -0.61888 -0.00922
    outer loop
      vertex -32.324 -4.117 105.25876
      vertex -32.703 -3.636 105.25876
      vertex -32.487 -3.855 100.3
    endloop
  endfacet
  facet normal -0.79241 -0.60999 0.00187
    outer loop
      vertex -32.695 -3.628 113.3
      vertex -32.703 -3.636 105.25876
      vertex -32.324 -4.117 110.21753
    endloop
  endfacet
  facet normal -0.92881 -0.37055 0
    outer loop
      vertex -32.324 -4.117 105.25876
      vertex -32.172 -4.498 113.3
      vertex -32.324 -4.117 110.21753
    endloop
  endfacet
  facet normal -0.78547 -0.6189 0
    outer loop
      vertex -32.324 -4.117 105.25876
      vertex -32.324 -4.117 110.21753
      vertex -32.703 -3.636 105.25876
    endloop
  endfacet
  facet normal -0.96722 0.25386 -0.0068
    outer loop
      vertex -32.124 -5.132 110.21753
      vertex -32.172 -5.513 100.3
      vertex -32.324 -5.894 110.21753
    endloop
  endfacet
  facet normal 0 0 -1
    outer loop
      vertex -32.487 -3.855 100.3
      vertex 24.576 0 100.3
      vertex -32.324 -4.117 100.3
    endloop
  endfacet
  facet normal -0.66392 -0.74778 0.0055
    outer loop
      vertex -32.487 -3.855 100.3
      vertex -32.703 -3.636 105.25876
      vertex -33.022 -3.38 100.3
    endloop
  endfacet
  facet normal 0 0 -1
    outer loop
      vertex 32.172 -5.513 100.3
      vertex -32.406 -6.024 100.3
      vertex 24.576 0 100.3
    endloop
  endfacet
  facet normal 0 0 -1
    outer loop
      vertex -32.324 -4.117 100.3
      vertex 24.576 0 100.3
      vertex -32.144 -4.597 100.3
    endloop
  endfacet
  facet normal 0 0 -1
    outer loop
      vertex -32.172 -5.513 100.3
      vertex 24.576 0 100.3
      vertex -32.406 -6.024 100.3
    endloop
  endfacet
  facet normal 0 0 -1
    outer loop
      vertex 32.172 -5.513 100.3
      vertex 32.372 -5.985 100.3
      vertex -32.406 -6.024 100.3
    endloop
  endfacet
  facet normal 0 0 -1
    outer loop
      vertex -32.144 -4.597 100.3
      vertex 24.576 0 100.3
      vertex -32.111 -5.211 100.3
    endloop
  endfacet
  facet normal 0 0 -1
    outer loop
      vertex -32.111 -5.211 100.3
      vertex 24.576 0 100.3
      vertex -32.172 -5.513 100.3
    endloop
  endfacet
  facet normal -0.93633 -0.35112 0
    outer loop
      vertex -32.324 -4.117 100.3
      vertex -32.144 -4.597 100.3
      vertex -32.324 -4.117 105.25876
    endloop
  endfacet
  facet normal -0.93389 -0.35756 0.00095
    outer loop
      vertex -32.172 -4.498 113.3
      vertex -32.324 -4.117 105.25876
      vertex -32.144 -4.597 100.3
    endloop
  endfacet
  facet normal -0.99771 -0.06759 -0.00219
    outer loop
      vertex -32.124 -5.132 110.21753
      vertex -32.172 -4.498 113.3
      vertex -32.144 -4.597 100.3
    endloop
  endfacet
  facet normal -0.99856 -0.05367 -0.00118
    outer loop
      vertex -32.111 -5.211 100.3
      vertex -32.124 -5.132 110.21753
      vertex -32.144 -4.597 100.3
    endloop
  endfacet
  facet normal -0.77896 0.62707 -0.00238
    outer loop
      vertex -32.406 -6.024 100.3
      vertex -32.695 -6.383 100.3
      vertex -32.324 -5.894 110.21753
    endloop
  endfacet
  facet normal -0.9092 0.41635 0.00276
    outer loop
      vertex -32.406 -6.024 100.3
      vertex -32.324 -5.894 110.21753
      vertex -32.172 -5.513 100.3
    endloop
  endfacet
  facet normal 0 0 -1
    outer loop
      vertex -35.828 -5.513 100.3
      vertex -35.676 -5.894 100.3
      vertex -54.033 -16 100.3
    endloop
  endfacet
  facet normal -0.84909 -0.52825 0
    outer loop
      vertex -32.324 -4.117 105.25876
      vertex -32.487 -3.855 100.3
      vertex -32.324 -4.117 100.3
    endloop
  endfacet
  facet normal -0.9802 0.19799 -0.00384
    outer loop
      vertex -32.172 -5.513 100.3
      vertex -32.124 -5.132 110.21753
      vertex -32.111 -5.211 100.3
    endloop
  endfacet
  facet normal 0 0 -1
    outer loop
      vertex 54.046 16 100.3
      vertex 24.576 0 100.3
      vertex -54.033 16 100.3
    endloop
  endfacet
  facet normal 0 0 -1
    outer loop
      vertex -35.828 -4.498 100.3
      vertex -54.033 16 100.3
      vertex -35.724 -4.207 100.3
    endloop
  endfacet
  facet normal 0.94167 -0.33654 0
    outer loop
      vertex -35.724 -4.207 100.3
      vertex -35.828 -4.498 105.25876
      vertex -35.828 -4.498 100.3
    endloop
  endfacet
  facet normal 0 0 -1
    outer loop
      vertex -35.9 -5.005 100.3
      vertex -54.033 -16 100.3
      vertex -35.828 -4.498 100.3
    endloop
  endfacet
  facet normal 0 0 -1
    outer loop
      vertex -32.695 -6.383 100.3
      vertex -32.406 -6.024 100.3
      vertex 32.372 -5.985 100.3
    endloop
  endfacet
  facet normal 0 0 -1
    outer loop
      vertex -35.066 -6.578 100.3
      vertex -54.033 -16 100.3
      vertex -35.379 -6.312 100.3
    endloop
  endfacet
  facet normal 0 0 -1
    outer loop
      vertex -35.676 -5.894 100.3
      vertex -35.379 -6.312 100.3
      vertex -54.033 -16 100.3
    endloop
  endfacet
  facet normal 0 0 -1
    outer loop
      vertex 32.372 -5.985 100.3
      vertex 33.492 -6.836 100.3
      vertex -32.695 -6.383 100.3
    endloop
  endfacet
  facet normal 0.58565 -0.81031 -0.02056
    outer loop
      vertex -35.185 -3.53 110.21753
      vertex -34.703 -3.24 113.3
      vertex -35.446 -3.777 113.3
    endloop
  endfacet
  facet normal 0 0 -1
    outer loop
      vertex -34.606 -6.803 100.3
      vertex -34.205 -6.891 100.3
      vertex -54.033 -16 100.3
    endloop
  endfacet
  facet normal 0 0 -1
    outer loop
      vertex -35.828 -5.513 100.3
      vertex -54.033 -16 100.3
      vertex -35.9 -5.005 100.3
    endloop
  endfacet
  facet normal 0 0 -1
    outer loop
      vertex -54.033 16 100.3
      vertex -35.828 -4.498 100.3
      vertex -54.033 -16 100.3
    endloop
  endfacet
  facet normal -0.3491 -0.93698 -0.01401
    outer loop
      vertex -33.394 -3.207 110.21753
      vertex -33.022 -3.38 113.3
      vertex -33.693 -3.13 113.3
    endloop
  endfacet
  facet normal 0 0 -1
    outer loop
      vertex -33.693 -6.88 100.3
      vertex -54.033 -16 100.3
      vertex -34.205 -6.891 100.3
    endloop
  endfacet
  facet normal -0.60428 -0.79677 0.00187
    outer loop
      vertex -32.703 -3.636 105.25876
      vertex -32.695 -3.628 113.3
      vertex -33.022 -3.38 113.3
    endloop
  endfacet
  facet normal 0 0 -1
    outer loop
      vertex 32.695 -3.628 100.3
      vertex 24.576 0 100.3
      vertex 33.022 -3.38 100.3
    endloop
  endfacet
  facet normal 0 0 -1
    outer loop
      vertex 34.307 -3.13 100.3
      vertex 33.897 -3.108 100.3
      vertex 54.046 16 100.3
    endloop
  endfacet
  facet normal 0 0 -1
    outer loop
      vertex 24.576 0 100.3
      vertex 54.046 16 100.3
      vertex 33.897 -3.108 100.3
    endloop
  endfacet
  facet normal -0.56082 0.82776 -0.01703
    outer loop
      vertex -33.297 -6.77 113.3
      vertex -32.621 -6.312 113.3
      vertex -33.022 -6.631 110.21753
    endloop
  endfacet
  facet normal -0.3527 0.93563 0.01437
    outer loop
      vertex -33.297 -6.77 113.3
      vertex -33.022 -6.631 110.21753
      vertex -33.595 -6.847 110.21753
    endloop
  endfacet
  facet normal -0.18453 0.98278 -0.00899
    outer loop
      vertex -33.595 -6.847 110.21753
      vertex -34 -6.902 113.3
      vertex -33.297 -6.77 113.3
    endloop
  endfacet
  facet normal 0.16121 0.98679 0.01579
    outer loop
      vertex -34.606 -6.803 113.3
      vertex -34 -6.902 113.3
      vertex -34.748 -6.743 110.21753
    endloop
  endfacet
  facet normal 0.51501 0.85713 -0.00944
    outer loop
      vertex -34.748 -6.743 110.21753
      vertex -35.305 -6.383 113.3
      vertex -34.606 -6.803 113.3
    endloop
  endfacet
  facet normal 0.8135 -0.5815 0.00795
    outer loop
      vertex -35.724 -4.207 100.3
      vertex -35.338 -3.667 100.3
      vertex -35.57 -3.941 105.25876
    endloop
  endfacet
  facet normal 0.9049 -0.42556 -0.00707
    outer loop
      vertex -35.724 -4.207 100.3
      vertex -35.57 -3.941 105.25876
      vertex -35.446 -3.777 113.3
    endloop
  endfacet
  facet normal 0.32012 -0.94737 0.00311
    outer loop
      vertex -34.89 -3.327 100.3
      vertex -34.307 -3.13 100.3
      vertex -34.408 -3.152 105.25876
    endloop
  endfacet
  facet normal 0.32641 -0.94523 0.00219
    outer loop
      vertex -34.703 -3.24 113.3
      vertex -34.89 -3.327 100.3
      vertex -34.408 -3.152 105.25876
    endloop
  endfacet
  facet normal -0.24903 -0.967 -0.05387
    outer loop
      vertex -33.394 -3.207 100.3
      vertex -34.408 -3.152 105.25876
      vertex -33.693 -3.13 100.3
    endloop
  endfacet
  facet normal -0.05416 -0.99853 0
    outer loop
      vertex -33.394 -3.207 100.3
      vertex -33.394 -3.207 110.21753
      vertex -34.408 -3.152 105.25876
    endloop
  endfacet
  facet normal 0 -0.99998 -0.00595
    outer loop
      vertex -33.693 -3.13 100.3
      vertex -34.408 -3.152 105.25876
      vertex -34.307 -3.13 100.3
    endloop
  endfacet
  facet normal 0.28586 -0.95827 0
    outer loop
      vertex -34.408 -3.152 113.3
      vertex -34.703 -3.24 113.3
      vertex -34.408 -3.152 105.25876
    endloop
  endfacet
  facet normal 0.03075 -0.99953 0
    outer loop
      vertex -33.693 -3.13 113.3
      vertex -34.408 -3.152 113.3
      vertex -34.408 -3.152 105.25876
    endloop
  endfacet
  facet normal -0.11878 -0.99276 0.01779
    outer loop
      vertex -33.394 -3.207 110.21753
      vertex -33.693 -3.13 113.3
      vertex -34.408 -3.152 105.25876
    endloop
  endfacet
  facet normal 0.52416 -0.85162 -0.00247
    outer loop
      vertex -35.185 -3.53 110.21753
      vertex -34.89 -3.327 100.3
      vertex -34.703 -3.24 113.3
    endloop
  endfacet
  facet normal 0.70862 -0.70557 0.00464
    outer loop
      vertex -35.57 -3.941 105.25876
      vertex -35.185 -3.53 110.21753
      vertex -35.446 -3.777 113.3
    endloop
  endfacet
  facet normal 0.74302 -0.66926 -0.00297
    outer loop
      vertex -35.185 -3.53 110.21753
      vertex -35.57 -3.941 105.25876
      vertex -35.338 -3.667 100.3
    endloop
  endfacet
  facet normal 0.60454 -0.79657 0.00225
    outer loop
      vertex -34.89 -3.327 100.3
      vertex -35.185 -3.53 110.21753
      vertex -35.338 -3.667 100.3
    endloop
  endfacet
  facet normal -0.42168 -0.90674 0.00296
    outer loop
      vertex -33.394 -3.207 100.3
      vertex -33.022 -3.38 100.3
      vertex -33.11 -3.327 105.25876
    endloop
  endfacet
  facet normal -0.4114 -0.91145 -0.00202
    outer loop
      vertex -33.022 -3.38 113.3
      vertex -33.394 -3.207 110.21753
      vertex -33.11 -3.327 105.25876
    endloop
  endfacet
  facet normal -0.60469 -0.79646 0.00183
    outer loop
      vertex -33.11 -3.327 105.25876
      vertex -32.703 -3.636 105.25876
      vertex -33.022 -3.38 113.3
    endloop
  endfacet
  facet normal -0.93633 -0.35112 0.0012
    outer loop
      vertex 35.676 -4.117 100.3
      vertex 35.856 -4.597 100.3
      vertex 35.752 -4.307 105.25876
    endloop
  endfacet
  facet normal -0.60468 -0.79646 -0.00297
    outer loop
      vertex -33.11 -3.327 105.25876
      vertex -33.022 -3.38 100.3
      vertex -32.703 -3.636 105.25876
    endloop
  endfacet
  facet normal -0.84905 -0.52823 -0.00969
    outer loop
      vertex 35.513 -3.855 100.3
      vertex 35.676 -4.117 100.3
      vertex 35.752 -4.307 105.25876
    endloop
  endfacet
  facet normal -0.38922 -0.92115 0
    outer loop
      vertex -33.394 -3.207 110.21753
      vertex -33.394 -3.207 100.3
      vertex -33.11 -3.327 105.25876
    endloop
  endfacet
  facet normal 0.81518 0.57921 0
    outer loop
      vertex -35.379 -6.312 100.3
      vertex -35.676 -5.894 100.3
      vertex -35.676 -5.894 113.3
    endloop
  endfacet
  facet normal 0 0 -1
    outer loop
      vertex 35.594 -6.024 100.3
      vertex 54.046 -16 100.3
      vertex 35.305 -6.383 100.3
    endloop
  endfacet
  facet normal 0 0 -1
    outer loop
      vertex 35.828 -5.513 100.3
      vertex 54.046 -16 100.3
      vertex 35.594 -6.024 100.3
    endloop
  endfacet
  facet normal 0 0 -1
    outer loop
      vertex 35.889 -5.211 100.3
      vertex 54.046 -16 100.3
      vertex 35.828 -5.513 100.3
    endloop
  endfacet
  facet normal 0.21435 0.97675 -0.00342
    outer loop
      vertex -34.205 -6.891 100.3
      vertex -34.606 -6.803 100.3
      vertex -34 -6.902 113.3
    endloop
  endfacet
  facet normal -0.60428 0.79677 0
    outer loop
      vertex -32.695 -6.383 100.3
      vertex -33.022 -6.631 100.3
      vertex -33.022 -6.631 110.21753
    endloop
  endfacet
  facet normal 0 0 -1
    outer loop
      vertex 35.856 -4.597 100.3
      vertex 54.046 -16 100.3
      vertex 35.889 -5.211 100.3
    endloop
  endfacet
  facet normal 0 0 -1
    outer loop
      vertex 35.676 -4.117 100.3
      vertex 54.046 16 100.3
      vertex 35.856 -4.597 100.3
    endloop
  endfacet
  facet normal 0.79666 0.60442 -0.00165
    outer loop
      vertex -35.379 -6.312 100.3
      vertex -35.676 -5.894 113.3
      vertex -35.305 -6.383 113.3
    endloop
  endfacet
  facet normal 0 0 -1
    outer loop
      vertex 34.307 -6.88 100.3
      vertex 54.046 -16 100.3
      vertex 34 -6.902 100.3
    endloop
  endfacet
  facet normal 0.92881 0.37055 0
    outer loop
      vertex -35.676 -5.894 113.3
      vertex -35.676 -5.894 100.3
      vertex -35.828 -5.513 100.3
    endloop
  endfacet
  facet normal 0.94616 0.32369 -0.00211
    outer loop
      vertex -35.858 -5.362 113.3
      vertex -35.676 -5.894 113.3
      vertex -35.828 -5.513 100.3
    endloop
  endfacet
  facet normal 0.9901 0.14033 0.00088
    outer loop
      vertex -35.858 -5.362 113.3
      vertex -35.828 -5.513 100.3
      vertex -35.9 -5.005 100.3
    endloop
  endfacet
  facet normal 0.99695 0.07802 -0.00145
    outer loop
      vertex -35.9 -5.005 100.3
      vertex -35.894 -4.902 113.3
      vertex -35.858 -5.362 113.3
    endloop
  endfacet
  facet normal 0.60482 0.79601 0.0236
    outer loop
      vertex 32.372 -5.985 100.3
      vertex 32.554 -6.233 105.25876
      vertex 33.492 -6.836 100.3
    endloop
  endfacet
  facet normal 0 0.99999 -0.00478
    outer loop
      vertex 34.307 -6.88 113.3
      vertex 34.205 -6.891 110.21753
      vertex 33.693 -6.88 113.3
    endloop
  endfacet
  facet normal 0.98692 -0.16123 0.0011
    outer loop
      vertex -35.9 -5.005 100.3
      vertex -35.828 -4.498 113.3
      vertex -35.894 -4.902 113.3
    endloop
  endfacet
  facet normal 0.99007 -0.1406 0
    outer loop
      vertex -35.828 -4.498 100.3
      vertex -35.828 -4.498 105.25876
      vertex -35.9 -5.005 100.3
    endloop
  endfacet
  facet normal 0.99007 -0.1406 0
    outer loop
      vertex -35.828 -4.498 113.3
      vertex -35.9 -5.005 100.3
      vertex -35.828 -4.498 105.25876
    endloop
  endfacet
  facet normal 0.88364 -0.46817 0
    outer loop
      vertex -35.446 -3.777 113.3
      vertex -35.828 -4.498 113.3
      vertex -35.828 -4.498 105.25876
    endloop
  endfacet
  facet normal 0.90791 -0.4191 -0.00744
    outer loop
      vertex -35.828 -4.498 105.25876
      vertex -35.724 -4.207 100.3
      vertex -35.446 -3.777 113.3
    endloop
  endfacet
  facet normal -0.61894 0.78544 -0.00103
    outer loop
      vertex -32.695 -6.383 100.3
      vertex -33.022 -6.631 110.21753
      vertex -32.621 -6.312 113.3
    endloop
  endfacet
  facet normal -0.35273 0.93572 0
    outer loop
      vertex -33.022 -6.631 100.3
      vertex -33.595 -6.847 110.21753
      vertex -33.022 -6.631 110.21753
    endloop
  endfacet
  facet normal 0.21883 0.97576 -0.00371
    outer loop
      vertex -34.606 -6.803 100.3
      vertex -34.748 -6.743 110.21753
      vertex -34 -6.902 113.3
    endloop
  endfacet
  facet normal 0 0 -1
    outer loop
      vertex -54.033 16 100.3
      vertex -35.338 -3.667 100.3
      vertex -35.724 -4.207 100.3
    endloop
  endfacet
  facet normal 0.21486 -0.97663 -0.00598
    outer loop
      vertex 33.297 -3.24 100.3
      vertex 33.897 -3.108 100.3
      vertex 34 -3.108 105.25876
    endloop
  endfacet
  facet normal 0 0 -1
    outer loop
      vertex -33.022 -3.38 100.3
      vertex -33.394 -3.207 100.3
      vertex 24.576 0 100.3
    endloop
  endfacet
  facet normal 0.45301 -0.88985 -0.05433
    outer loop
      vertex 34 -3.108 105.25876
      vertex 33.022 -3.38 100.3
      vertex 33.297 -3.24 100.3
    endloop
  endfacet
  facet normal 0 0 -1
    outer loop
      vertex -34.89 -3.327 100.3
      vertex -35.338 -3.667 100.3
      vertex -54.033 16 100.3
    endloop
  endfacet
  facet normal 0 0 -1
    outer loop
      vertex -33.693 -3.13 100.3
      vertex -54.033 16 100.3
      vertex -33.394 -3.207 100.3
    endloop
  endfacet
  facet normal 0.26795 -0.96343 0
    outer loop
      vertex 33.022 -3.38 105.25876
      vertex 33.022 -3.38 100.3
      vertex 34 -3.108 105.25876
    endloop
  endfacet
  facet normal 0 0 -1
    outer loop
      vertex -33.394 -3.207 100.3
      vertex -54.033 16 100.3
      vertex 24.576 0 100.3
    endloop
  endfacet
  facet normal 0 0 -1
    outer loop
      vertex -32.487 -3.855 100.3
      vertex -33.022 -3.38 100.3
      vertex 24.576 0 100.3
    endloop
  endfacet
  facet normal 0 0 -1
    outer loop
      vertex -34.307 -3.13 100.3
      vertex -54.033 16 100.3
      vertex -33.693 -3.13 100.3
    endloop
  endfacet
  facet normal 0 0 -1
    outer loop
      vertex -34.89 -3.327 100.3
      vertex -54.033 16 100.3
      vertex -34.307 -3.13 100.3
    endloop
  endfacet
  facet normal 0.26794 -0.96341 0.00743
    outer loop
      vertex 34 -3.108 105.25876
      vertex 33.11 -3.327 110.21753
      vertex 33.022 -3.38 105.25876
    endloop
  endfacet
  facet normal 0.60428 -0.79677 0
    outer loop
      vertex 33.022 -3.38 105.25876
      vertex 32.695 -3.628 100.3
      vertex 33.022 -3.38 100.3
    endloop
  endfacet
  facet normal -0.05358 -0.99856 0.00149
    outer loop
      vertex 34 -3.108 105.25876
      vertex 33.897 -3.108 100.3
      vertex 34.307 -3.13 100.3
    endloop
  endfacet
  facet normal 0 0 1
    outer loop
      vertex -35.446 -3.777 113.3
      vertex -34.703 -3.24 113.3
      vertex -54.033 16 113.3
    endloop
  endfacet
  facet normal 0 0 1
    outer loop
      vertex -32.695 -3.628 113.3
      vertex 16.384 16 113.3
      vertex -33.022 -3.38 113.3
    endloop
  endfacet
  facet normal 0 0 1
    outer loop
      vertex -35.676 -5.894 113.3
      vertex -35.858 -5.362 113.3
      vertex -54.033 -16 113.3
    endloop
  endfacet
  facet normal 0 0 1
    outer loop
      vertex -35.894 -4.902 113.3
      vertex -54.033 -16 113.3
      vertex -35.858 -5.362 113.3
    endloop
  endfacet
  facet normal 0 0 1
    outer loop
      vertex -35.828 -4.498 113.3
      vertex -54.033 16 113.3
      vertex -35.894 -4.902 113.3
    endloop
  endfacet
  facet normal 0 0 1
    outer loop
      vertex -35.446 -3.777 113.3
      vertex -54.033 16 113.3
      vertex -35.828 -4.498 113.3
    endloop
  endfacet
  facet normal 0 0 1
    outer loop
      vertex -34.606 -6.803 113.3
      vertex -54.033 -16 113.3
      vertex -34 -6.902 113.3
    endloop
  endfacet
  facet normal 0 0 1
    outer loop
      vertex -35.305 -6.383 113.3
      vertex -35.676 -5.894 113.3
      vertex -54.033 -16 113.3
    endloop
  endfacet
  facet normal 0 0 1
    outer loop
      vertex -34.606 -6.803 113.3
      vertex -35.305 -6.383 113.3
      vertex -54.033 -16 113.3
    endloop
  endfacet
  facet normal 0 0 1
    outer loop
      vertex -54.033 -16 113.3
      vertex 16.384 -16 113.3
      vertex -34 -6.902 113.3
    endloop
  endfacet
  facet normal 1 0 0
    outer loop
      vertex 54.046 -16 113.3
      vertex 54.046 -16 100.3
      vertex 54.046 16 113.3
    endloop
  endfacet
  facet normal 1 0 0
    outer loop
      vertex 54.046 16 100.3
      vertex 54.046 16 113.3
      vertex 54.046 -16 100.3
    endloop
  endfacet
  facet normal -0.26297 -0.9648 0.00155
    outer loop
      vertex 34.205 -3.119 110.21753
      vertex 34.748 -3.267 110.21753
      vertex 34.38 -3.163 113.3
    endloop
  endfacet
  facet normal -0.26297 -0.9648 -0.00219
    outer loop
      vertex 34.748 -3.267 110.21753
      vertex 34.205 -3.119 110.21753
      vertex 34.307 -3.13 100.3
    endloop
  endfacet
  facet normal -0.38815 -0.92137 -0.02044
    outer loop
      vertex 35.104 -3.468 113.3
      vertex 34.38 -3.163 113.3
      vertex 34.748 -3.267 110.21753
    endloop
  endfacet
  facet normal 0.34912 -0.93704 -0.00824
    outer loop
      vertex 33.693 -3.13 113.3
      vertex 33.022 -3.38 113.3
      vertex 33.11 -3.327 110.21753
    endloop
  endfacet
  facet normal 0.29054 -0.95683 0.00831
    outer loop
      vertex 33.693 -3.13 113.3
      vertex 33.11 -3.327 110.21753
      vertex 33.795 -3.119 110.21753
    endloop
  endfacet
  facet normal -0.04798 -0.99882 -0.0069
    outer loop
      vertex 33.795 -3.119 110.21753
      vertex 34.38 -3.163 113.3
      vertex 33.693 -3.13 113.3
    endloop
  endfacet
  facet normal -0.75821 -0.65129 -0.03059
    outer loop
      vertex 35.513 -3.855 100.3
      vertex 35.752 -4.307 105.25876
      vertex 35.379 -3.699 100.3
    endloop
  endfacet
  facet normal 0 -0.99982 -0.01913
    outer loop
      vertex 34.205 -3.119 110.21753
      vertex 34.38 -3.163 113.3
      vertex 33.795 -3.119 110.21753
    endloop
  endfacet
  facet normal 0 -1 -0.00297
    outer loop
      vertex 33.795 -3.119 110.21753
      vertex 34 -3.108 105.25876
      vertex 34.205 -3.119 110.21753
    endloop
  endfacet
  facet normal 0.29052 -0.95678 0.01325
    outer loop
      vertex 33.11 -3.327 110.21753
      vertex 34 -3.108 105.25876
      vertex 33.795 -3.119 110.21753
    endloop
  endfacet
  facet normal -0.97734 -0.21148 -0.00922
    outer loop
      vertex 35.676 -4.117 110.21753
      vertex 35.752 -4.307 105.25876
      vertex 35.892 -4.954 105.25876
    endloop
  endfacet
  facet normal -0.4835 -0.87535 -0.00166
    outer loop
      vertex 34.978 -3.38 100.3
      vertex 35.104 -3.468 113.3
      vertex 34.748 -3.267 110.21753
    endloop
  endfacet
  facet normal -0.99855 -0.05367 0.00454
    outer loop
      vertex 35.856 -4.597 100.3
      vertex 35.889 -5.211 100.3
      vertex 35.892 -4.954 105.25876
    endloop
  endfacet
  facet normal -0.6704 -0.742 0.00198
    outer loop
      vertex 34.978 -3.38 100.3
      vertex 35.446 -3.777 113.3
      vertex 35.104 -3.468 113.3
    endloop
  endfacet
  facet normal -0.97732 -0.21148 -0.0109
    outer loop
      vertex 35.892 -4.954 105.25876
      vertex 35.752 -4.307 105.25876
      vertex 35.856 -4.597 100.3
    endloop
  endfacet
  facet normal -0.62255 -0.78258 -0.00199
    outer loop
      vertex 34.978 -3.38 100.3
      vertex 35.379 -3.699 100.3
      vertex 35.446 -3.777 113.3
    endloop
  endfacet
  facet normal -0.82466 -0.56562 0.00115
    outer loop
      vertex 35.676 -4.117 110.21753
      vertex 35.446 -3.777 113.3
      vertex 35.379 -3.699 100.3
    endloop
  endfacet
  facet normal -0.34913 -0.93707 0.00346
    outer loop
      vertex 34.978 -3.38 100.3
      vertex 34.748 -3.267 110.21753
      vertex 34.307 -3.13 100.3
    endloop
  endfacet
  facet normal -0.07148 0.99744 0.0005
    outer loop
      vertex 34 -6.902 100.3
      vertex 34.205 -6.891 110.21753
      vertex 34.307 -6.88 100.3
    endloop
  endfacet
  facet normal 0.60428 -0.79677 0
    outer loop
      vertex 32.695 -3.628 113.3
      vertex 32.695 -3.628 100.3
      vertex 33.022 -3.38 105.25876
    endloop
  endfacet
  facet normal -0.06432 -0.99793 0.0006
    outer loop
      vertex 34.307 -3.13 100.3
      vertex 34.205 -3.119 110.21753
      vertex 34 -3.108 105.25876
    endloop
  endfacet
  facet normal -0.77896 0.62707 0
    outer loop
      vertex 35.594 -6.024 113.3
      vertex 35.594 -6.024 100.3
      vertex 35.305 -6.383 113.3
    endloop
  endfacet
  facet normal -0.82828 -0.56031 0
    outer loop
      vertex 35.446 -3.777 113.3
      vertex 35.676 -4.117 110.21753
      vertex 35.676 -4.117 113.3
    endloop
  endfacet
  facet normal -0.99488 0.0161 0.09979
    outer loop
      vertex 35.676 -4.117 110.21753
      vertex 35.889 -5.211 113.3
      vertex 35.894 -4.902 113.3
    endloop
  endfacet
  facet normal -0.77896 0.62707 0
    outer loop
      vertex 35.305 -6.383 100.3
      vertex 35.305 -6.383 113.3
      vertex 35.594 -6.024 100.3
    endloop
  endfacet
  facet normal -0.99331 -0.10815 0.04055
    outer loop
      vertex 35.676 -4.117 110.21753
      vertex 35.828 -5.513 110.21753
      vertex 35.889 -5.211 113.3
    endloop
  endfacet
  facet normal -0.5597 0.82869 0.00232
    outer loop
      vertex 34.89 -6.684 110.21753
      vertex 34.978 -6.631 113.3
      vertex 35.305 -6.383 100.3
    endloop
  endfacet
  facet normal -0.58713 0.80949 0
    outer loop
      vertex 34.89 -6.684 100.3
      vertex 34.89 -6.684 110.21753
      vertex 35.305 -6.383 100.3
    endloop
  endfacet
  facet normal -0.99663 0.08183 -0.00488
    outer loop
      vertex 35.892 -4.954 105.25876
      vertex 35.889 -5.211 100.3
      vertex 35.828 -5.513 110.21753
    endloop
  endfacet
  facet normal -0.99357 -0.10818 -0.03353
    outer loop
      vertex 35.676 -4.117 110.21753
      vertex 35.892 -4.954 105.25876
      vertex 35.828 -5.513 110.21753
    endloop
  endfacet
  facet normal -0.9802 0.19799 0
    outer loop
      vertex 35.889 -5.211 113.3
      vertex 35.828 -5.513 110.21753
      vertex 35.828 -5.513 113.3
    endloop
  endfacet
  facet normal -0.28927 0.95724 -0.00256
    outer loop
      vertex 34.307 -6.88 100.3
      vertex 34.205 -6.891 110.21753
      vertex 34.89 -6.684 110.21753
    endloop
  endfacet
  facet normal -0.9802 0.19799 0
    outer loop
      vertex 35.828 -5.513 110.21753
      vertex 35.889 -5.211 100.3
      vertex 35.828 -5.513 100.3
    endloop
  endfacet
  facet normal -0.90921 0.41635 0
    outer loop
      vertex 35.828 -5.513 110.21753
      vertex 35.594 -6.024 100.3
      vertex 35.594 -6.024 113.3
    endloop
  endfacet
  facet normal -0.90921 0.41635 0
    outer loop
      vertex 35.828 -5.513 113.3
      vertex 35.828 -5.513 110.21753
      vertex 35.594 -6.024 113.3
    endloop
  endfacet
  facet normal -0.90921 0.41635 0
    outer loop
      vertex 35.594 -6.024 100.3
      vertex 35.828 -5.513 110.21753
      vertex 35.828 -5.513 100.3
    endloop
  endfacet
  facet normal -0.96354 -0.26758 0
    outer loop
      vertex 35.676 -4.117 113.3
      vertex 35.676 -4.117 110.21753
      vertex 35.894 -4.902 113.3
    endloop
  endfacet
  facet normal -0.87149 -0.49035 0.00728
    outer loop
      vertex 35.676 -4.117 110.21753
      vertex 35.379 -3.699 100.3
      vertex 35.752 -4.307 105.25876
    endloop
  endfacet
  facet normal 0.77375 0.63348 0.00392
    outer loop
      vertex 32.77 -6.453 113.3
      vertex 32.852 -6.516 105.25876
      vertex 32.324 -5.894 110.21753
    endloop
  endfacet
  facet normal 0.01317 0.99991 -0.00185
    outer loop
      vertex 33.693 -6.88 113.3
      vertex 34.205 -6.891 110.21753
      vertex 34 -6.902 100.3
    endloop
  endfacet
  facet normal 0.68843 0.72492 -0.02362
    outer loop
      vertex 32.554 -6.233 105.25876
      vertex 32.324 -5.894 110.21753
      vertex 32.852 -6.516 105.25876
    endloop
  endfacet
  facet normal -0.60428 0.79677 0
    outer loop
      vertex 35.305 -6.383 100.3
      vertex 34.978 -6.631 113.3
      vertex 35.305 -6.383 113.3
    endloop
  endfacet
  facet normal 0 0 -1
    outer loop
      vertex 34.978 -3.38 100.3
      vertex 54.046 16 100.3
      vertex 35.379 -3.699 100.3
    endloop
  endfacet
  facet normal 0.26764 0.9635 0.00629
    outer loop
      vertex 33.693 -6.88 113.3
      vertex 34 -6.902 100.3
      vertex 33.297 -6.77 113.3
    endloop
  endfacet
  facet normal 0 0 -1
    outer loop
      vertex 35.379 -3.699 100.3
      vertex 54.046 16 100.3
      vertex 35.513 -3.855 100.3
    endloop
  endfacet
  facet normal 0.12884 0.99166 -0.00416
    outer loop
      vertex 34 -6.902 100.3
      vertex 33.492 -6.836 100.3
      vertex 33.297 -6.77 113.3
    endloop
  endfacet
  facet normal 0 0 -1
    outer loop
      vertex 35.513 -3.855 100.3
      vertex 54.046 16 100.3
      vertex 35.676 -4.117 100.3
    endloop
  endfacet
  facet normal 0 0 -1
    outer loop
      vertex 33.297 -3.24 100.3
      vertex 24.576 0 100.3
      vertex 33.897 -3.108 100.3
    endloop
  endfacet
  facet normal 0 0 -1
    outer loop
      vertex 33.022 -3.38 100.3
      vertex 24.576 0 100.3
      vertex 33.297 -3.24 100.3
    endloop
  endfacet
  facet normal 0 0 -1
    outer loop
      vertex 34.307 -3.13 100.3
      vertex 54.046 16 100.3
      vertex 34.978 -3.38 100.3
    endloop
  endfacet
  facet normal 0.51545 0.85691 0.00453
    outer loop
      vertex 33.492 -6.836 100.3
      vertex 32.77 -6.453 113.3
      vertex 33.297 -6.77 113.3
    endloop
  endfacet
  facet normal 0.78169 0.62367 0
    outer loop
      vertex 32.77 -6.453 113.3
      vertex 32.324 -5.894 110.21753
      vertex 32.324 -5.894 113.3
    endloop
  endfacet
  facet normal -0.31867 0.94787 0
    outer loop
      vertex 34.89 -6.684 110.21753
      vertex 34.89 -6.684 100.3
      vertex 34.307 -6.88 100.3
    endloop
  endfacet
  facet normal -0.34789 0.9375 -0.00829
    outer loop
      vertex 34.307 -6.88 113.3
      vertex 34.978 -6.631 113.3
      vertex 34.89 -6.684 110.21753
    endloop
  endfacet
  facet normal -0.28926 0.95721 0.00825
    outer loop
      vertex 34.307 -6.88 113.3
      vertex 34.89 -6.684 110.21753
      vertex 34.205 -6.891 110.21753
    endloop
  endfacet
  facet normal 0 0 -1
    outer loop
      vertex 34.89 -6.684 100.3
      vertex 35.305 -6.383 100.3
      vertex 54.046 -16 100.3
    endloop
  endfacet
  facet normal -0.34791 0.93753 0.00043
    outer loop
      vertex -33.022 -6.631 100.3
      vertex -33.693 -6.88 100.3
      vertex -33.595 -6.847 110.21753
    endloop
  endfacet
  facet normal 0 0 -1
    outer loop
      vertex 34.307 -6.88 100.3
      vertex 34.89 -6.684 100.3
      vertex 54.046 -16 100.3
    endloop
  endfacet
  facet normal 0.43938 0.8983 0.00115
    outer loop
      vertex -34.606 -6.803 100.3
      vertex -35.066 -6.578 100.3
      vertex -34.748 -6.743 110.21753
    endloop
  endfacet
  facet normal 0.64758 0.762 0.00064
    outer loop
      vertex -35.066 -6.578 100.3
      vertex -35.379 -6.312 100.3
      vertex -35.305 -6.383 113.3
    endloop
  endfacet
  facet normal 0 0 -1
    outer loop
      vertex -54.033 -16 100.3
      vertex -33.693 -6.88 100.3
      vertex 33.492 -6.836 100.3
    endloop
  endfacet
  facet normal 0 0 -1
    outer loop
      vertex -33.693 -6.88 100.3
      vertex -33.022 -6.631 100.3
      vertex 33.492 -6.836 100.3
    endloop
  endfacet
  facet normal 0 0 -1
    outer loop
      vertex 34 -6.902 100.3
      vertex 54.046 -16 100.3
      vertex 33.492 -6.836 100.3
    endloop
  endfacet
  facet normal 0 0 -1
    outer loop
      vertex -54.033 -16 100.3
      vertex 33.492 -6.836 100.3
      vertex 54.046 -16 100.3
    endloop
  endfacet
  facet normal -0.02148 0.99977 0.00159
    outer loop
      vertex -33.693 -6.88 100.3
      vertex -34.205 -6.891 100.3
      vertex -34 -6.902 113.3
    endloop
  endfacet
  facet normal 0.68753 0.72397 0.05631
    outer loop
      vertex 33.492 -6.836 100.3
      vertex 32.554 -6.233 105.25876
      vertex 32.852 -6.516 105.25876
    endloop
  endfacet
  facet normal -0.1482 0.98895 -0.00245
    outer loop
      vertex -33.595 -6.847 110.21753
      vertex -33.693 -6.88 100.3
      vertex -34 -6.902 113.3
    endloop
  endfacet
  facet normal 0.43051 0.90258 -0.00359
    outer loop
      vertex 32.852 -6.516 105.25876
      vertex 32.77 -6.453 113.3
      vertex 33.492 -6.836 100.3
    endloop
  endfacet
  facet normal 0.53128 0.84719 -0.00394
    outer loop
      vertex -34.748 -6.743 110.21753
      vertex -35.066 -6.578 100.3
      vertex -35.305 -6.383 113.3
    endloop
  endfacet
  facet normal 0 0 -1
    outer loop
      vertex 54.046 -16 100.3
      vertex 35.856 -4.597 100.3
      vertex 54.046 16 100.3
    endloop
  endfacet
  facet normal 0.60427 -0.79676 0.00476
    outer loop
      vertex 33.022 -3.38 113.3
      vertex 32.695 -3.628 113.3
      vertex 33.11 -3.327 110.21753
    endloop
  endfacet
  facet normal 0.57945 -0.81501 -0.00211
    outer loop
      vertex 32.695 -3.628 113.3
      vertex 33.022 -3.38 105.25876
      vertex 33.11 -3.327 110.21753
    endloop
  endfacet
  facet normal 0 0 -1
    outer loop
      vertex -35.066 -6.578 100.3
      vertex -34.606 -6.803 100.3
      vertex -54.033 -16 100.3
    endloop
  endfacet
  facet normal 0 0 -1
    outer loop
      vertex -33.022 -6.631 100.3
      vertex -32.695 -6.383 100.3
      vertex 33.492 -6.836 100.3
    endloop
  endfacet
  facet normal -1 0 0
    outer loop
      vertex -54.033 16 113.3
      vertex -54.033 16 100.3
      vertex -54.033 -16 113.3
    endloop
  endfacet
  facet normal -1 0 0
    outer loop
      vertex -54.033 -16 100.3
      vertex -54.033 -16 113.3
      vertex -54.033 16 100.3
    endloop
  endfacet
  facet normal 0 0 1
    outer loop
      vertex 54.046 16 113.3
      vertex 34.38 -3.163 113.3
      vertex 35.104 -3.468 113.3
    endloop
  endfacet
  facet normal 0 0 1
    outer loop
      vertex 35.104 -3.468 113.3
      vertex 35.446 -3.777 113.3
      vertex 54.046 16 113.3
    endloop
  endfacet
  facet normal 0 0 1
    outer loop
      vertex 16.384 16 113.3
      vertex 33.693 -3.13 113.3
      vertex 54.046 16 113.3
    endloop
  endfacet
  facet normal 0 0 1
    outer loop
      vertex 34.38 -3.163 113.3
      vertex 54.046 16 113.3
      vertex 33.693 -3.13 113.3
    endloop
  endfacet
  facet normal 0 0 1
    outer loop
      vertex 35.446 -3.777 113.3
      vertex 35.676 -4.117 113.3
      vertex 54.046 16 113.3
    endloop
  endfacet
  facet normal 0 0 1
    outer loop
      vertex 35.594 -6.024 113.3
      vertex 54.046 -16 113.3
      vertex 35.828 -5.513 113.3
    endloop
  endfacet
  facet normal 0 0 1
    outer loop
      vertex 35.676 -4.117 113.3
      vertex 35.894 -4.902 113.3
      vertex 54.046 16 113.3
    endloop
  endfacet
  facet normal 0 0 1
    outer loop
      vertex 35.889 -5.211 113.3
      vertex 54.046 -16 113.3
      vertex 35.894 -4.902 113.3
    endloop
  endfacet
  facet normal 0 0 1
    outer loop
      vertex 54.046 16 113.3
      vertex 35.894 -4.902 113.3
      vertex 54.046 -16 113.3
    endloop
  endfacet
  facet normal 0 0 1
    outer loop
      vertex 35.889 -5.211 113.3
      vertex 35.828 -5.513 113.3
      vertex 54.046 -16 113.3
    endloop
  endfacet
  facet normal 0 0 1
    outer loop
      vertex 34.978 -6.631 113.3
      vertex 54.046 -16 113.3
      vertex 35.305 -6.383 113.3
    endloop
  endfacet
  facet normal 0 0 1
    outer loop
      vertex 35.594 -6.024 113.3
      vertex 35.305 -6.383 113.3
      vertex 54.046 -16 113.3
    endloop
  endfacet
  facet normal 0 0 1
    outer loop
      vertex 34.307 -6.88 113.3
      vertex 54.046 -16 113.3
      vertex 34.978 -6.631 113.3
    endloop
  endfacet
  facet normal 0 0 1
    outer loop
      vertex 33.693 -6.88 113.3
      vertex 16.384 -16 113.3
      vertex 34.307 -6.88 113.3
    endloop
  endfacet
  facet normal 0 0 1
    outer loop
      vertex 33.297 -6.77 113.3
      vertex 16.384 -16 113.3
      vertex 33.693 -6.88 113.3
    endloop
  endfacet
  facet normal 0 0 1
    outer loop
      vertex 32.77 -6.453 113.3
      vertex 16.384 -16 113.3
      vertex 33.297 -6.77 113.3
    endloop
  endfacet
  facet normal 0 0 1
    outer loop
      vertex 16.384 16 113.3
      vertex 16.384 -16 113.3
      vertex 32.106 -4.902 113.3
    endloop
  endfacet
  facet normal 0 0 1
    outer loop
      vertex 32.172 -4.498 113.3
      vertex 16.384 16 113.3
      vertex 32.106 -4.902 113.3
    endloop
  endfacet
  facet normal 0 0 1
    outer loop
      vertex 32.142 -5.362 113.3
      vertex 32.106 -4.902 113.3
      vertex 16.384 -16 113.3
    endloop
  endfacet
  facet normal 0 0 1
    outer loop
      vertex 32.142 -5.362 113.3
      vertex 16.384 -16 113.3
      vertex 32.324 -5.894 113.3
    endloop
  endfacet
  facet normal 0 0 1
    outer loop
      vertex 32.77 -6.453 113.3
      vertex 32.324 -5.894 113.3
      vertex 16.384 -16 113.3
    endloop
  endfacet
  facet normal 0 0 1
    outer loop
      vertex 54.046 -16 113.3
      vertex 34.307 -6.88 113.3
      vertex 16.384 -16 113.3
    endloop
  endfacet
  facet normal 0 0 1
    outer loop
      vertex 32.406 -3.986 113.3
      vertex 16.384 16 113.3
      vertex 32.172 -4.498 113.3
    endloop
  endfacet
  facet normal 0 0 1
    outer loop
      vertex 32.406 -3.986 113.3
      vertex 32.695 -3.628 113.3
      vertex 16.384 16 113.3
    endloop
  endfacet
  facet normal 0 0 1
    outer loop
      vertex 16.384 16 113.3
      vertex 32.695 -3.628 113.3
      vertex 33.022 -3.38 113.3
    endloop
  endfacet
  facet normal 0 0 1
    outer loop
      vertex 33.022 -3.38 113.3
      vertex 33.693 -3.13 113.3
      vertex 16.384 16 113.3
    endloop
  endfacet
  facet normal 0 0 1
    outer loop
      vertex -32.199 -5.612 113.3
      vertex 16.384 -16 113.3
      vertex -32.108 -5.057 113.3
    endloop
  endfacet
  facet normal 0 0 1
    outer loop
      vertex -32.406 -3.986 113.3
      vertex 16.384 16 113.3
      vertex -32.695 -3.628 113.3
    endloop
  endfacet
  facet normal 0 0 1
    outer loop
      vertex -32.172 -4.498 113.3
      vertex 16.384 16 113.3
      vertex -32.406 -3.986 113.3
    endloop
  endfacet
  facet normal 0 0 1
    outer loop
      vertex -32.621 -6.312 113.3
      vertex 16.384 -16 113.3
      vertex -32.324 -5.894 113.3
    endloop
  endfacet
  facet normal 0 0 1
    outer loop
      vertex -33.297 -6.77 113.3
      vertex 16.384 -16 113.3
      vertex -32.621 -6.312 113.3
    endloop
  endfacet
  facet normal 0 0 1
    outer loop
      vertex -32.108 -5.057 113.3
      vertex 16.384 16 113.3
      vertex -32.172 -4.498 113.3
    endloop
  endfacet
  facet normal 0 0 1
    outer loop
      vertex 16.384 16 113.3
      vertex -32.108 -5.057 113.3
      vertex 16.384 -16 113.3
    endloop
  endfacet
  facet normal 0 0 1
    outer loop
      vertex -32.324 -5.894 113.3
      vertex 16.384 -16 113.3
      vertex -32.199 -5.612 113.3
    endloop
  endfacet
  facet normal 0 0 1
    outer loop
      vertex -33.297 -6.77 113.3
      vertex -34 -6.902 113.3
      vertex 16.384 -16 113.3
    endloop
  endfacet
  facet normal 0 0 1
    outer loop
      vertex -33.022 -3.38 113.3
      vertex 16.384 16 113.3
      vertex -33.693 -3.13 113.3
    endloop
  endfacet
  facet normal 0 0 1
    outer loop
      vertex -34.408 -3.152 113.3
      vertex -33.693 -3.13 113.3
      vertex -54.033 16 113.3
    endloop
  endfacet
  facet normal 0 0 1
    outer loop
      vertex -54.033 -16 113.3
      vertex -35.894 -4.902 113.3
      vertex -54.033 16 113.3
    endloop
  endfacet
  facet normal 0 0 1
    outer loop
      vertex -34.408 -3.152 113.3
      vertex -54.033 16 113.3
      vertex -34.703 -3.24 113.3
    endloop
  endfacet
  facet normal 0 0 1
    outer loop
      vertex 16.384 16 113.3
      vertex -54.033 16 113.3
      vertex -33.693 -3.13 113.3
    endloop
  endfacet
endsolid stl_item0
